<svg xmlns="http://www.w3.org/2000/svg" xmlns:v="https://svgstorm.com"
viewBox = "0 0 166 246"
width="166"
height="246">
<g fill="None" fill-opacity="0.0" stroke="#FDFDFE" stroke-opacity="1.00" stroke-width="0.3"><path d="
M 0.00 246.00 
L 90.00 246.00
C 90.41 244.44 89.54 243.31 89.00 242.00
C 81.59 249.30 79.15 238.14 72.00 240.00
C 71.93 240.49 72.00 241.00 72.00 241.00
C 70.74 242.43 68.02 242.93 66.00 243.00
C 66.10 240.58 66.30 236.58 64.00 240.00
C 64.00 238.67 64.00 237.33 64.00 236.00
C 62.78 235.89 62.69 235.17 62.00 235.00
C 55.90 233.47 49.91 233.43 44.00 231.00
C 41.85 230.12 39.13 229.09 38.00 227.00
C 40.11 227.40 42.66 228.38 44.00 230.00
C 46.08 229.71 47.57 229.86 47.00 227.00
C 44.10 227.90 42.94 224.08 40.00 225.00
C 37.32 224.43 34.62 224.83 32.00 224.00
C 32.00 223.00 32.00 222.00 32.00 221.00
C 30.46 220.99 29.60 219.87 28.00 220.00
C 28.68 212.91 30.21 205.43 32.00 199.00
C 33.80 184.11 36.44 171.12 37.00 156.00
C 37.07 154.01 35.59 151.68 37.00 149.00
C 35.14 144.01 37.28 132.71 35.22 127.78 C 33.16 122.84 26.41 113.26 30.00 109.00
C 29.01 107.35 28.14 104.92 28.00 103.00
C 27.44 96.81 29.07 90.11 28.00 84.00
C 26.54 83.54 27.07 81.19 27.00 80.00
C 26.57 72.65 24.89 60.90 31.31 55.31 C 37.72 49.71 34.59 39.48 38.00 33.00
C 38.25 31.22 43.59 20.45 46.00 21.00
C 47.52 19.63 51.87 27.01 52.77 29.23 C 53.67 31.45 56.99 38.75 56.00 42.00
C 59.43 39.87 62.59 34.85 68.00 36.00
C 71.72 36.07 77.08 37.40 79.00 41.00
C 80.44 43.09 79.79 46.71 81.00 49.00
C 82.33 49.00 83.67 49.00 85.00 49.00
C 89.01 48.21 92.19 49.89 95.00 52.00
C 99.61 55.46 101.89 59.07 105.25 63.75 C 108.61 68.43 114.71 68.81 119.00 72.00
C 122.06 74.27 124.27 77.62 127.00 80.00
C 130.05 82.27 132.56 84.03 135.00 87.00
C 136.28 88.55 138.87 90.63 139.00 93.00
C 140.58 97.92 138.45 104.82 139.00 110.00
C 139.17 111.65 139.23 112.54 140.00 114.00
C 140.21 114.39 140.00 115.00 140.00 115.00
C 141.63 116.60 140.31 116.63 140.00 118.00
C 137.39 129.45 132.72 137.29 130.00 149.00 C 127.29 160.71 130.02 175.08 128.00 187.00
C 127.30 191.17 126.56 195.50 127.00 200.00
C 127.31 203.18 127.03 208.01 127.00 211.00
C 128.51 216.02 130.51 225.87 129.00 231.00
C 127.80 235.07 119.47 233.25 122.00 240.00
C 120.02 238.89 118.32 240.57 117.00 238.00
C 115.23 243.58 106.59 236.91 107.00 244.00
C 103.66 241.34 102.96 241.00 100.00 244.00
C 99.98 244.80 98.82 245.11 99.00 246.00
L 166.00 246.00
L 166.00 0.00
L 0.00 0.00
L 0.00 246.00 Z"/>
</g>
<g fill="None" fill-opacity="0.0" stroke="#6A5C60" stroke-opacity="1.00" stroke-width="0.3"><path d="
M 38.00 33.00 
C 38.11 32.79 39.00 33.00 39.00 33.00
C 41.31 29.89 41.81 25.05 46.00 23.00
C 46.40 22.80 47.00 23.00 47.00 23.00
C 46.98 22.91 45.89 20.97 46.00 21.00
C 43.59 20.45 38.25 31.22 38.00 33.00 Z"/>
</g>
<g fill="None" fill-opacity="0.0" stroke="#322321" stroke-opacity="1.00" stroke-width="0.3"><path d="
M 47.00 23.00 
C 47.09 23.48 47.00 24.50 47.00 25.00
C 47.11 25.26 47.75 25.75 48.00 26.00
C 48.25 26.25 48.77 26.72 49.00 27.00
C 52.97 31.76 55.13 38.68 55.00 45.00 C 54.87 51.32 52.93 59.30 50.69 64.69 C 48.46 70.09 46.57 79.08 46.01 84.01 C 45.45 88.93 45.84 103.76 50.00 104.00
C 49.76 103.81 50.00 103.00 50.00 103.00
C 47.98 100.41 49.64 97.07 50.00 94.00
C 50.06 93.51 50.12 92.47 50.00 92.00
C 49.91 91.65 48.99 91.14 49.00 91.00
C 48.55 92.54 49.34 94.43 49.00 96.00
C 45.39 87.42 48.51 73.28 52.32 64.32 C 56.13 55.36 54.10 41.19 65.00 38.00
C 65.56 37.75 67.49 36.09 68.00 36.00
C 62.59 34.85 59.43 39.87 56.00 42.00
C 56.99 38.75 53.67 31.45 52.77 29.23 C 51.87 27.01 47.52 19.63 46.00 21.00
C 45.89 20.97 46.98 22.91 47.00 23.00 Z"/>
</g>
<g fill="None" fill-opacity="0.0" stroke="#A8E6A3" stroke-opacity="1.00" stroke-width="0.3"><path d="
M 39.00 33.00 
C 39.26 33.24 39.00 35.61 39.00 36.00
C 39.00 39.41 38.11 44.45 40.00 47.00
C 40.00 37.99 39.94 29.93 46.00 23.00
C 41.81 25.05 41.31 29.89 39.00 33.00 Z"/>
</g>
<g fill="None" fill-opacity="0.0" stroke="#58C266" stroke-opacity="1.00" stroke-width="0.3"><path d="
M 40.00 47.00 
C 40.00 47.50 40.00 48.00 40.00 48.00
C 45.31 44.84 46.71 35.63 47.00 30.00
C 47.08 28.34 47.00 26.66 47.00 25.00
C 47.00 24.50 47.09 23.48 47.00 23.00
C 47.00 23.00 46.40 22.80 46.00 23.00
C 39.94 29.93 40.00 37.99 40.00 47.00 Z"/>
</g>
<g fill="None" fill-opacity="0.0" stroke="#3B944B" stroke-opacity="1.00" stroke-width="0.3"><path d="
M 47.00 30.00 
C 47.26 28.92 48.54 27.75 48.00 26.00
C 47.75 25.75 47.11 25.26 47.00 25.00
C 47.00 26.66 47.08 28.34 47.00 30.00 Z"/>
</g>
<g fill="None" fill-opacity="0.0" stroke="#461F22" stroke-opacity="1.00" stroke-width="0.3"><path d="
M 47.00 30.00 
C 46.71 35.63 45.31 44.84 40.00 48.00
C 39.88 48.26 39.26 48.88 39.00 49.00
C 44.68 49.19 46.85 40.31 48.00 36.00
C 48.68 33.44 49.59 29.79 49.00 27.00
C 48.77 26.72 48.25 26.25 48.00 26.00
C 48.54 27.75 47.26 28.92 47.00 30.00 Z"/>
</g>
<g fill="None" fill-opacity="0.0" stroke="#ECB9A2" stroke-opacity="1.00" stroke-width="0.3"><path d="
M 48.00 36.00 
C 47.69 44.02 52.46 55.14 46.68 63.68 C 40.90 72.22 40.50 81.98 39.00 92.00
C 35.89 92.45 36.93 87.97 35.00 87.00
C 27.87 91.01 30.46 103.21 33.00 111.00
C 40.66 115.40 50.03 108.11 58.00 110.00
C 58.07 110.16 58.93 105.26 59.00 105.00
C 59.21 105.56 51.59 105.23 50.00 104.00
C 45.84 103.76 45.45 88.93 46.01 84.01 C 46.57 79.08 48.46 70.09 50.69 64.69 C 52.93 59.30 54.87 51.32 55.00 45.00 C 55.13 38.68 52.97 31.76 49.00 27.00
C 49.59 29.79 48.68 33.44 48.00 36.00 Z"/>
</g>
<g fill="None" fill-opacity="0.0" stroke="#2A2929" stroke-opacity="1.00" stroke-width="0.3"><path d="
M 27.00 80.00 
C 27.00 80.04 28.00 80.00 28.00 80.00
C 26.30 69.62 30.20 54.82 38.00 48.00
C 38.99 46.11 38.42 38.64 39.00 36.00
C 39.00 35.61 39.26 33.24 39.00 33.00
C 39.00 33.00 38.11 32.79 38.00 33.00
C 34.59 39.48 37.72 49.71 31.31 55.31 C 24.89 60.90 26.57 72.65 27.00 80.00 Z"/>
</g>
<g fill="None" fill-opacity="0.0" stroke="#A4A2A1" stroke-opacity="1.00" stroke-width="0.3"><path d="
M 38.00 48.00 
C 37.79 48.39 38.00 49.00 38.00 49.00
C 38.25 49.25 39.00 49.00 39.00 49.00
C 39.26 48.88 39.88 48.26 40.00 48.00
C 40.00 48.00 40.00 47.50 40.00 47.00
C 38.11 44.45 39.00 39.41 39.00 36.00
C 38.42 38.64 38.99 46.11 38.00 48.00 Z"/>
</g>
<g fill="None" fill-opacity="0.0" stroke="#F8D6C5" stroke-opacity="1.00" stroke-width="0.3"><path d="
M 39.00 49.00 
C 39.00 49.00 38.25 49.25 38.00 49.00
C 35.70 54.84 26.04 65.94 36.00 68.00
C 24.80 65.55 32.97 80.99 29.00 86.00
C 29.00 91.59 29.50 97.44 29.00 103.00
C 30.04 104.34 30.81 107.07 31.00 109.00
C 31.83 109.79 31.94 110.39 33.00 111.00
C 30.46 103.21 27.87 91.01 35.00 87.00
C 36.93 87.97 35.89 92.45 39.00 92.00
C 40.50 81.98 40.90 72.22 46.68 63.68 C 52.46 55.14 47.69 44.02 48.00 36.00
C 46.85 40.31 44.68 49.19 39.00 49.00 Z"/>
</g>
<g fill="None" fill-opacity="0.0" stroke="#9D9996" stroke-opacity="1.00" stroke-width="0.3"><path d="
M 65.00 38.00 
C 69.18 37.29 73.50 37.98 77.00 40.00
C 77.29 40.17 78.88 40.83 79.00 41.00
C 77.08 37.40 71.72 36.07 68.00 36.00
C 67.49 36.09 65.56 37.75 65.00 38.00 Z"/>
</g>
<g fill="None" fill-opacity="0.0" stroke="#F4D1C0" stroke-opacity="1.00" stroke-width="0.3"><path d="
M 49.00 91.00 
C 49.59 88.97 50.56 85.63 52.00 84.00
C 52.43 82.68 54.66 81.12 56.00 81.00
C 57.45 80.27 58.18 81.51 59.00 82.00
C 61.75 82.22 61.39 85.46 62.00 87.00
C 62.26 87.67 63.98 90.43 64.00 91.00
C 67.42 80.08 71.12 68.77 75.00 58.00
C 75.33 54.35 74.34 44.59 77.00 41.00
C 76.76 40.70 77.00 40.00 77.00 40.00
C 73.50 37.98 69.18 37.29 65.00 38.00
C 54.10 41.19 56.13 55.36 52.32 64.32 C 48.51 73.28 45.39 87.42 49.00 96.00
C 49.34 94.43 48.55 92.54 49.00 91.00 Z"/>
</g>
<g fill="None" fill-opacity="0.0" stroke="#523D39" stroke-opacity="1.00" stroke-width="0.3"><path d="
M 77.00 41.00 
C 81.91 47.04 76.97 52.53 75.00 58.00
C 71.12 68.77 67.42 80.08 64.00 91.00
C 63.89 91.35 63.35 91.97 63.00 92.00
C 62.25 94.77 62.45 96.17 60.00 98.00
C 59.87 98.35 59.12 98.74 59.00 99.00
C 58.92 99.49 59.00 100.00 59.00 100.00
C 62.53 100.87 59.53 102.94 59.00 105.00
C 58.93 105.26 58.07 110.16 58.00 110.00
C 58.13 110.03 60.00 111.00 60.00 111.00
C 60.81 108.55 63.08 105.84 65.00 104.00
C 65.25 103.76 65.00 103.00 65.00 103.00
C 63.70 104.00 62.39 105.21 61.00 106.00
C 62.53 96.98 66.02 87.91 70.00 80.00
C 72.85 72.10 73.55 58.07 80.00 52.00
C 81.80 50.30 82.14 49.88 85.00 50.00
C 84.98 50.00 85.00 49.00 85.00 49.00
C 83.67 49.00 82.33 49.00 81.00 49.00
C 79.79 46.71 80.44 43.09 79.00 41.00
C 78.88 40.83 77.29 40.17 77.00 40.00
C 77.00 40.00 76.76 40.70 77.00 41.00 Z"/>
</g>
<g fill="None" fill-opacity="0.0" stroke="#E4AC94" stroke-opacity="1.00" stroke-width="0.3"><path d="
M 75.00 58.00 
C 76.97 52.53 81.91 47.04 77.00 41.00
C 74.34 44.59 75.33 54.35 75.00 58.00 Z"/>
</g>
<g fill="None" fill-opacity="0.0" stroke="#EDE8E3" stroke-opacity="1.00" stroke-width="0.3"><path d="
M 28.00 80.00 
C 28.23 81.42 28.99 82.33 29.00 84.00
C 29.00 84.50 29.00 85.50 29.00 86.00
C 32.97 80.99 24.80 65.55 36.00 68.00
C 26.04 65.94 35.70 54.84 38.00 49.00
C 38.00 49.00 37.79 48.39 38.00 48.00
C 30.20 54.82 26.30 69.62 28.00 80.00 Z"/>
</g>
<g fill="None" fill-opacity="0.0" stroke="#9C8178" stroke-opacity="1.00" stroke-width="0.3"><path d="
M 85.00 50.00 
C 90.20 49.81 91.54 50.88 95.00 54.00
C 96.12 55.01 98.06 55.93 99.00 57.00
C 97.90 55.46 96.35 53.19 95.00 52.00
C 92.19 49.89 89.01 48.21 85.00 49.00
C 85.00 49.00 84.98 50.00 85.00 50.00 Z"/>
</g>
<g fill="None" fill-opacity="0.0" stroke="#F7D7C8" stroke-opacity="1.00" stroke-width="0.3"><path d="
M 80.00 52.00 
C 79.35 52.81 78.71 58.94 78.00 61.00
C 81.80 55.71 80.61 61.50 79.02 65.02 C 77.44 68.55 75.69 73.08 75.00 77.00
C 71.83 75.42 76.95 71.49 74.00 70.00
C 72.84 73.28 72.52 77.53 70.00 80.00
C 66.02 87.91 62.53 96.98 61.00 106.00
C 62.39 105.21 63.70 104.00 65.00 103.00
C 66.37 101.42 67.86 102.20 69.00 103.00
C 75.18 105.87 72.74 113.65 70.00 118.00
C 74.90 115.69 76.02 108.52 79.00 104.00
C 80.74 97.50 86.40 87.03 85.99 78.99 C 85.58 70.96 96.77 60.64 95.00 54.00
C 91.54 50.88 90.20 49.81 85.00 50.00
C 82.14 49.88 81.80 50.30 80.00 52.00 Z"/>
</g>
<g fill="None" fill-opacity="0.0" stroke="#F1E6DE" stroke-opacity="1.00" stroke-width="0.3"><path d="
M 70.00 80.00 
C 72.52 77.53 72.84 73.28 74.00 70.00
C 76.95 71.49 71.83 75.42 75.00 77.00
C 75.69 73.08 77.44 68.55 79.02 65.02 C 80.61 61.50 81.80 55.71 78.00 61.00
C 78.71 58.94 79.35 52.81 80.00 52.00
C 73.55 58.07 72.85 72.10 70.00 80.00 Z"/>
</g>
<g fill="None" fill-opacity="0.0" stroke="#2D221F" stroke-opacity="1.00" stroke-width="0.3"><path d="
M 99.00 57.00 
C 101.21 60.10 103.31 63.77 105.00 67.00
C 103.67 67.00 102.33 67.00 101.00 67.00
C 101.03 67.00 101.00 68.00 101.00 68.00
C 104.51 68.42 107.61 69.09 111.00 70.00
C 119.60 72.30 124.76 79.98 132.00 85.00
C 132.93 85.64 134.20 86.30 135.00 87.00
C 132.56 84.03 130.05 82.27 127.00 80.00
C 123.94 77.73 121.73 74.38 119.00 72.00
C 114.71 68.81 108.61 68.43 105.25 63.75 C 101.89 59.07 99.61 55.46 95.00 52.00
C 96.35 53.19 97.90 55.46 99.00 57.00 Z"/>
</g>
<g fill="None" fill-opacity="0.0" stroke="#ECBBA4" stroke-opacity="1.00" stroke-width="0.3"><path d="
M 79.00 104.00 
C 84.49 93.26 88.18 80.82 95.00 71.00
C 96.96 68.18 97.41 68.54 101.00 67.00
C 102.33 67.00 103.67 67.00 105.00 67.00
C 103.31 63.77 101.21 60.10 99.00 57.00
C 98.06 55.93 96.12 55.01 95.00 54.00
C 96.77 60.64 85.58 70.96 85.99 78.99 C 86.40 87.03 80.74 97.50 79.00 104.00 Z"/>
</g>
<g fill="None" fill-opacity="0.0" stroke="#7D584E" stroke-opacity="1.00" stroke-width="0.3"><path d="
M 95.00 71.00 
C 95.01 71.18 96.04 71.69 96.00 72.00
C 97.19 70.58 99.51 69.04 101.00 68.00
C 101.00 68.00 101.03 67.00 101.00 67.00
C 97.41 68.54 96.96 68.18 95.00 71.00 Z"/>
</g>
<g fill="None" fill-opacity="0.0" stroke="#F6D2C2" stroke-opacity="1.00" stroke-width="0.3"><path d="
M 96.00 72.00 
C 90.97 78.00 89.70 86.95 85.69 93.69 C 81.69 100.44 78.42 107.91 75.00 115.00
C 74.46 115.40 78.60 115.81 79.00 115.00
C 82.61 118.32 83.68 122.48 82.00 127.00
C 91.44 110.24 98.90 90.52 113.00 76.00
C 112.01 73.53 107.32 71.90 111.00 70.00
C 107.61 69.09 104.51 68.42 101.00 68.00
C 99.51 69.04 97.19 70.58 96.00 72.00 Z"/>
</g>
<g fill="None" fill-opacity="0.0" stroke="#EBBAA3" stroke-opacity="1.00" stroke-width="0.3"><path d="
M 82.00 127.00 
C 81.12 128.56 79.74 130.12 79.00 132.00
C 90.99 123.61 91.85 106.15 101.00 96.00
C 100.87 98.95 98.12 101.03 98.00 104.00
C 100.84 99.21 105.35 93.14 108.30 88.30 C 111.26 83.46 119.29 77.35 121.00 81.00
C 121.98 83.10 122.22 85.77 123.00 88.00
C 119.72 88.69 120.76 90.30 121.00 93.00
C 115.77 93.97 113.56 102.87 110.08 108.08 C 106.59 113.28 101.21 119.71 99.00 125.00
C 100.67 123.89 102.13 122.70 104.00 122.00
C 111.40 113.68 118.34 102.97 128.00 97.00
C 127.08 100.09 119.84 102.51 124.00 105.00
C 119.64 103.81 117.90 108.22 116.00 111.00
C 122.57 111.05 128.09 115.18 135.00 114.00
C 135.15 108.63 137.34 102.84 138.00 98.00
C 138.00 96.86 137.67 95.09 138.00 94.00
C 137.52 91.41 134.19 86.91 132.00 85.00
C 124.76 79.98 119.60 72.30 111.00 70.00
C 107.32 71.90 112.01 73.53 113.00 76.00
C 98.90 90.52 91.44 110.24 82.00 127.00 Z"/>
</g>
<g fill="None" fill-opacity="0.0" stroke="#361F20" stroke-opacity="1.00" stroke-width="0.3"><path d="
M 79.00 104.00 
C 76.02 108.52 74.90 115.69 70.00 118.00
C 72.74 113.65 75.18 105.87 69.00 103.00
C 69.60 103.42 70.79 105.29 71.00 106.00
C 72.76 112.02 68.89 115.53 67.23 121.23 C 65.57 126.93 57.35 125.58 58.00 118.00
C 57.79 118.25 57.00 118.00 57.00 118.00
C 55.95 122.43 59.97 126.64 64.01 125.99 C 68.04 125.34 70.26 122.36 72.00 121.00
C 72.49 120.20 73.36 118.55 74.00 118.00
C 74.43 116.83 74.53 115.97 75.00 115.00
C 78.42 107.91 81.69 100.44 85.69 93.69 C 89.70 86.95 90.97 78.00 96.00 72.00
C 96.04 71.69 95.01 71.18 95.00 71.00
C 88.18 80.82 84.49 93.26 79.00 104.00 Z"/>
</g>
<g fill="None" fill-opacity="0.0" stroke="#717274" stroke-opacity="1.00" stroke-width="0.3"><path d="
M 127.00 80.00 
C 124.27 77.62 122.06 74.27 119.00 72.00
C 121.73 74.38 123.94 77.73 127.00 80.00 Z"/>
</g>
<g fill="None" fill-opacity="0.0" stroke="#4B352F" stroke-opacity="1.00" stroke-width="0.3"><path d="
M 98.00 104.00 
C 95.06 111.39 90.84 119.50 86.00 126.00
C 86.16 125.77 87.00 126.00 87.00 126.00
C 88.27 125.51 89.35 123.93 90.00 123.00
C 91.10 121.41 90.86 120.10 93.00 119.00
C 93.20 118.90 93.00 118.00 93.00 118.00
C 95.29 108.23 104.33 99.41 108.77 90.77 C 113.21 82.13 115.53 85.96 121.00 81.00
C 119.29 77.35 111.26 83.46 108.30 88.30 C 105.35 93.14 100.84 99.21 98.00 104.00 Z"/>
</g>
<g fill="None" fill-opacity="0.0" stroke="#5F5E5E" stroke-opacity="1.00" stroke-width="0.3"><path d="
M 28.00 84.00 
C 28.46 84.14 29.00 84.00 29.00 84.00
C 28.99 82.33 28.23 81.42 28.00 80.00
C 28.00 80.00 27.00 80.04 27.00 80.00
C 27.07 81.19 26.54 83.54 28.00 84.00 Z"/>
</g>
<g fill="None" fill-opacity="0.0" stroke="#9C827D" stroke-opacity="1.00" stroke-width="0.3"><path d="
M 52.00 84.00 
C 52.22 83.75 53.00 84.00 53.00 84.00
C 53.24 83.96 54.87 83.13 55.00 83.00
C 55.26 82.74 55.81 81.10 56.00 81.00
C 54.66 81.12 52.43 82.68 52.00 84.00 Z"/>
</g>
<g fill="None" fill-opacity="0.0" stroke="#B25C6C" stroke-opacity="1.00" stroke-width="0.3"><path d="
M 55.00 83.00 
C 55.82 82.82 57.25 83.37 58.00 83.00
C 58.27 82.87 58.94 82.23 59.00 82.00
C 58.18 81.51 57.45 80.27 56.00 81.00
C 55.81 81.10 55.26 82.74 55.00 83.00 Z"/>
</g>
<g fill="None" fill-opacity="0.0" stroke="#F5D4C4" stroke-opacity="1.00" stroke-width="0.3"><path d="
M 93.00 118.00 
C 100.17 117.11 97.61 125.84 95.00 129.00
C 98.60 126.67 101.08 125.28 104.00 122.00
C 102.13 122.70 100.67 123.89 99.00 125.00
C 101.21 119.71 106.59 113.28 110.08 108.08 C 113.56 102.87 115.77 93.97 121.00 93.00
C 120.76 90.30 119.72 88.69 123.00 88.00
C 122.22 85.77 121.98 83.10 121.00 81.00
C 115.53 85.96 113.21 82.13 108.77 90.77 C 104.33 99.41 95.29 108.23 93.00 118.00 Z"/>
</g>
<g fill="None" fill-opacity="0.0" stroke="#662731" stroke-opacity="1.00" stroke-width="0.3"><path d="
M 58.00 83.00 
C 63.04 87.74 60.00 92.92 59.00 99.00
C 59.12 98.74 59.87 98.35 60.00 98.00
C 60.73 96.07 61.27 93.95 62.00 92.00
C 61.51 90.58 62.17 88.50 62.00 87.00
C 61.39 85.46 61.75 82.22 59.00 82.00
C 58.94 82.23 58.27 82.87 58.00 83.00 Z"/>
</g>
<g fill="None" fill-opacity="0.0" stroke="#689F38" stroke-opacity="1.00" stroke-width="0.3"><path d="
M 53.00 84.00 
C 53.24 85.08 52.24 86.90 52.00 88.00
C 51.50 90.31 50.56 92.17 50.00 94.00
C 49.64 97.07 47.98 100.41 50.00 103.00
C 54.09 104.12 57.66 104.69 59.00 100.00
C 59.00 100.00 58.92 99.49 59.00 99.00
C 60.00 92.92 63.04 87.74 58.00 83.00
C 57.25 83.37 55.82 82.82 55.00 83.00
C 54.87 83.13 53.24 83.96 53.00 84.00
M 56.00 87.00 
C 56.70 95.31 49.16 88.67 56.00 87.00 Z"/>
</g>
<g fill="None" fill-opacity="0.0" stroke="#121112" stroke-opacity="1.00" stroke-width="0.3"><path d="
M 28.00 103.00 
C 28.00 103.04 29.00 103.00 29.00 103.00
C 29.50 97.44 29.00 91.59 29.00 86.00
C 29.00 85.50 29.00 84.50 29.00 84.00
C 29.00 84.00 28.46 84.14 28.00 84.00
C 29.07 90.11 27.44 96.81 28.00 103.00 Z"/>
</g>
<g fill="None" fill-opacity="0.0" stroke="#716463" stroke-opacity="1.00" stroke-width="0.3"><path d="
M 49.00 91.00 
C 48.99 91.14 49.91 91.65 50.00 92.00
C 50.26 91.01 51.67 88.96 52.00 88.00
C 52.24 86.90 53.24 85.08 53.00 84.00
C 53.00 84.00 52.22 83.75 52.00 84.00
C 50.56 85.63 49.59 88.97 49.00 91.00 Z"/>
</g>
<g fill="None" fill-opacity="0.0" stroke="#8E7067" stroke-opacity="1.00" stroke-width="0.3"><path d="
M 138.00 94.00 
C 138.11 93.65 139.01 93.15 139.00 93.00
C 138.87 90.63 136.28 88.55 135.00 87.00
C 134.20 86.30 132.93 85.64 132.00 85.00
C 134.19 86.91 137.52 91.41 138.00 94.00 Z"/>
</g>
<g fill="None" fill-opacity="0.0" stroke="#AED581" stroke-opacity="1.00" stroke-width="0.3"><path d="
M 56.00 87.00 
C 49.16 88.67 56.70 95.31 56.00 87.00 Z"/>
</g>
<g fill="None" fill-opacity="0.0" stroke="#A28477" stroke-opacity="1.00" stroke-width="0.3"><path d="
M 62.00 92.00 
C 62.06 91.84 63.00 92.00 63.00 92.00
C 63.35 91.97 63.89 91.35 64.00 91.00
C 63.98 90.43 62.26 87.67 62.00 87.00
C 62.17 88.50 61.51 90.58 62.00 92.00 Z"/>
</g>
<g fill="None" fill-opacity="0.0" stroke="#81C784" stroke-opacity="1.00" stroke-width="0.3"><path d="
M 50.00 92.00 
C 50.12 92.47 50.06 93.51 50.00 94.00
C 50.56 92.17 51.50 90.31 52.00 88.00
C 51.67 88.96 50.26 91.01 50.00 92.00 Z"/>
</g>
<g fill="None" fill-opacity="0.0" stroke="#C5B8B0" stroke-opacity="1.00" stroke-width="0.3"><path d="
M 60.00 98.00 
C 62.45 96.17 62.25 94.77 63.00 92.00
C 63.00 92.00 62.06 91.84 62.00 92.00
C 61.27 93.95 60.73 96.07 60.00 98.00 Z"/>
</g>
<g fill="None" fill-opacity="0.0" stroke="#33322F" stroke-opacity="1.00" stroke-width="0.3"><path d="
M 138.00 94.00 
C 137.67 95.09 138.00 96.86 138.00 98.00
C 138.00 100.96 137.75 104.05 138.00 107.00
C 138.13 108.54 138.67 108.98 139.00 110.00
C 138.45 104.82 140.58 97.92 139.00 93.00
C 139.01 93.15 138.11 93.65 138.00 94.00 Z"/>
</g>
<g fill="None" fill-opacity="0.0" stroke="#EED5C4" stroke-opacity="1.00" stroke-width="0.3"><path d="
M 79.00 132.00 
C 78.83 132.43 79.00 133.00 79.00 133.00
C 81.66 131.89 84.44 128.23 86.00 126.00
C 90.84 119.50 95.06 111.39 98.00 104.00
C 98.12 101.03 100.87 98.95 101.00 96.00
C 91.85 106.15 90.99 123.61 79.00 132.00 Z"/>
</g>
<g fill="None" fill-opacity="0.0" stroke="#1F171A" stroke-opacity="1.00" stroke-width="0.3"><path d="
M 104.00 122.00 
C 101.08 125.28 98.60 126.67 95.00 129.00
C 93.84 129.75 92.35 131.81 91.00 132.00
C 87.02 132.57 85.75 128.91 87.00 126.00
C 87.00 126.00 86.16 125.77 86.00 126.00
C 84.44 128.23 81.66 131.89 79.00 133.00
C 78.72 134.77 77.77 132.56 77.00 133.00
C 76.69 133.60 76.35 134.47 76.00 135.00
C 75.06 136.43 74.79 136.81 73.00 137.00
C 76.55 137.70 81.28 134.43 84.00 131.00
C 92.26 132.84 102.29 131.00 107.75 120.75 C 113.22 110.51 125.52 113.75 136.00 116.00
C 136.86 115.98 138.18 116.25 139.00 116.00
C 139.35 115.89 139.97 115.35 140.00 115.00
C 140.00 115.00 140.21 114.39 140.00 114.00
C 139.68 113.65 137.47 111.86 137.00 112.00
C 136.46 113.80 136.92 113.48 135.00 114.00
C 128.09 115.18 122.57 111.05 116.00 111.00
C 117.90 108.22 119.64 103.81 124.00 105.00
C 119.84 102.51 127.08 100.09 128.00 97.00
C 118.34 102.97 111.40 113.68 104.00 122.00 Z"/>
</g>
<g fill="None" fill-opacity="0.0" stroke="#E0DBD5" stroke-opacity="1.00" stroke-width="0.3"><path d="
M 135.00 114.00 
C 136.92 113.48 136.46 113.80 137.00 112.00
C 137.33 110.89 137.90 107.70 138.00 107.00
C 137.75 104.05 138.00 100.96 138.00 98.00
C 137.34 102.84 135.15 108.63 135.00 114.00 Z"/>
</g>
<g fill="None" fill-opacity="0.0" stroke="#824E4D" stroke-opacity="1.00" stroke-width="0.3"><path d="
M 50.00 103.00 
C 50.00 103.00 49.76 103.81 50.00 104.00
C 51.59 105.23 59.21 105.56 59.00 105.00
C 59.53 102.94 62.53 100.87 59.00 100.00
C 57.66 104.69 54.09 104.12 50.00 103.00 Z"/>
</g>
<g fill="None" fill-opacity="0.0" stroke="#9F525F" stroke-opacity="1.00" stroke-width="0.3"><path d="
M 65.00 103.00 
C 65.00 103.00 65.25 103.76 65.00 104.00
C 66.71 103.97 70.09 104.14 71.00 106.00
C 70.79 105.29 69.60 103.42 69.00 103.00
C 67.86 102.20 66.37 101.42 65.00 103.00 Z"/>
</g>
<g fill="None" fill-opacity="0.0" stroke="#818282" stroke-opacity="1.00" stroke-width="0.3"><path d="
M 30.00 109.00 
C 30.13 109.22 31.00 109.00 31.00 109.00
C 30.81 107.07 30.04 104.34 29.00 103.00
C 29.00 103.00 28.00 103.04 28.00 103.00
C 28.14 104.92 29.01 107.35 30.00 109.00 Z"/>
</g>
<g fill="None" fill-opacity="0.0" stroke="#66BB6A" stroke-opacity="1.00" stroke-width="0.3"><path d="
M 60.00 111.00 
C 59.85 111.45 60.13 112.54 60.00 113.00
C 60.55 111.88 62.47 110.76 62.00 109.00
C 63.10 109.51 63.32 113.72 65.00 111.00
C 63.68 110.70 64.13 108.99 64.00 108.00
C 63.94 107.58 63.51 104.67 65.00 104.00
C 63.08 105.84 60.81 108.55 60.00 111.00 Z"/>
</g>
<g fill="None" fill-opacity="0.0" stroke="#43A047" stroke-opacity="1.00" stroke-width="0.3"><path d="
M 64.00 108.00 
C 63.23 104.77 68.35 111.77 65.00 111.00
C 63.32 113.72 63.10 109.51 62.00 109.00
C 62.47 110.76 60.55 111.88 60.00 113.00
C 59.63 114.30 58.94 116.88 58.00 118.00
C 57.35 125.58 65.57 126.93 67.23 121.23 C 68.89 115.53 72.76 112.02 71.00 106.00
C 70.09 104.14 66.71 103.97 65.00 104.00
C 63.51 104.67 63.94 107.58 64.00 108.00 Z"/>
</g>
<g fill="None" fill-opacity="0.0" stroke="#FAE5EF" stroke-opacity="1.00" stroke-width="0.3"><path d="
M 64.00 108.00 
C 64.13 108.99 63.68 110.70 65.00 111.00
C 68.35 111.77 63.23 104.77 64.00 108.00 Z"/>
</g>
<g fill="None" fill-opacity="0.0" stroke="#70706E" stroke-opacity="1.00" stroke-width="0.3"><path d="
M 137.00 112.00 
C 137.47 111.86 139.68 113.65 140.00 114.00
C 139.23 112.54 139.17 111.65 139.00 110.00
C 138.67 108.98 138.13 108.54 138.00 107.00
C 137.90 107.70 137.33 110.89 137.00 112.00 Z"/>
</g>
<g fill="None" fill-opacity="0.0" stroke="#161416" stroke-opacity="1.00" stroke-width="0.3"><path d="
M 37.00 149.00 
C 37.11 148.79 38.00 149.00 38.00 149.00
C 38.40 142.30 39.20 133.18 37.00 127.00
C 35.62 124.91 30.29 116.75 31.00 114.00
C 31.60 111.65 37.89 113.00 41.00 113.00
C 47.09 113.00 52.22 112.05 58.00 111.00
C 58.67 113.61 56.66 115.45 57.00 118.00
C 57.00 118.00 57.79 118.25 58.00 118.00
C 58.94 116.88 59.63 114.30 60.00 113.00
C 60.13 112.54 59.85 111.45 60.00 111.00
C 60.00 111.00 58.13 110.03 58.00 110.00
C 50.03 108.11 40.66 115.40 33.00 111.00
C 31.94 110.39 31.83 109.79 31.00 109.00
C 31.00 109.00 30.13 109.22 30.00 109.00
C 26.41 113.26 33.16 122.84 35.22 127.78 C 37.28 132.71 35.14 144.01 37.00 149.00 Z"/>
</g>
<g fill="None" fill-opacity="0.0" stroke="#243146" stroke-opacity="1.00" stroke-width="0.3"><path d="
M 41.00 113.00 
C 40.77 113.05 40.33 113.82 40.00 114.00
C 38.34 114.92 36.28 115.34 34.00 115.00
C 36.04 120.35 40.59 124.86 40.00 131.00
C 40.12 133.32 40.00 135.68 40.00 138.00
C 39.75 137.00 41.80 139.56 42.00 142.00
C 42.43 147.15 41.33 151.37 40.00 156.00
C 43.65 157.01 47.05 158.88 51.00 159.00
C 53.32 159.42 56.08 160.48 58.00 161.00
C 68.08 163.73 79.27 162.65 90.00 162.00 C 100.73 161.35 110.67 168.27 121.00 165.00
C 112.25 166.24 104.76 159.19 96.00 160.00
C 105.83 159.39 117.33 162.47 127.00 160.00
C 129.76 153.22 129.61 143.47 132.00 136.00
C 134.05 129.62 136.36 123.09 136.00 116.00
C 125.52 113.75 113.22 110.51 107.75 120.75 C 102.29 131.00 92.26 132.84 84.00 131.00
C 81.28 134.43 76.55 137.70 73.00 137.00
C 64.72 135.36 66.67 127.84 71.00 123.00
C 71.50 122.44 71.63 121.60 72.00 121.00
C 70.26 122.36 68.04 125.34 64.01 125.99 C 59.97 126.64 55.95 122.43 57.00 118.00
C 56.66 115.45 58.67 113.61 58.00 111.00
C 52.22 112.05 47.09 113.00 41.00 113.00 Z"/>
</g>
<g fill="None" fill-opacity="0.0" stroke="#73787F" stroke-opacity="1.00" stroke-width="0.3"><path d="
M 31.00 114.00 
C 33.95 113.68 37.06 114.42 40.00 114.00
C 40.33 113.82 40.77 113.05 41.00 113.00
C 37.89 113.00 31.60 111.65 31.00 114.00 Z"/>
</g>
<g fill="None" fill-opacity="0.0" stroke="#485365" stroke-opacity="1.00" stroke-width="0.3"><path d="
M 37.00 127.00 
C 37.82 128.24 39.66 129.54 40.00 131.00
C 40.59 124.86 36.04 120.35 34.00 115.00
C 36.28 115.34 38.34 114.92 40.00 114.00
C 37.06 114.42 33.95 113.68 31.00 114.00
C 30.29 116.75 35.62 124.91 37.00 127.00 Z"/>
</g>
<g fill="None" fill-opacity="0.0" stroke="#633536" stroke-opacity="1.00" stroke-width="0.3"><path d="
M 74.00 118.00 
C 74.50 117.57 75.36 117.14 76.00 117.00
C 85.48 114.99 78.74 129.60 77.00 133.00
C 77.77 132.56 78.72 134.77 79.00 133.00
C 79.00 133.00 78.83 132.43 79.00 132.00
C 79.74 130.12 81.12 128.56 82.00 127.00
C 83.68 122.48 82.61 118.32 79.00 115.00
C 78.60 115.81 74.46 115.40 75.00 115.00
C 74.53 115.97 74.43 116.83 74.00 118.00 Z"/>
</g>
<g fill="None" fill-opacity="0.0" stroke="#4C4C4C" stroke-opacity="1.00" stroke-width="0.3"><path d="
M 139.00 116.00 
C 138.82 116.42 139.06 117.51 139.00 118.00
C 139.34 118.23 140.00 118.00 140.00 118.00
C 140.31 116.63 141.63 116.60 140.00 115.00
C 139.97 115.35 139.35 115.89 139.00 116.00 Z"/>
</g>
<g fill="None" fill-opacity="0.0" stroke="#BDC0C3" stroke-opacity="1.00" stroke-width="0.3"><path d="
M 132.00 136.00 
C 134.57 130.79 138.23 124.10 139.00 118.00
C 139.06 117.51 138.82 116.42 139.00 116.00
C 138.18 116.25 136.86 115.98 136.00 116.00
C 136.36 123.09 134.05 129.62 132.00 136.00 Z"/>
</g>
<g fill="None" fill-opacity="0.0" stroke="#9CCC65" stroke-opacity="1.00" stroke-width="0.3"><path d="
M 74.00 118.00 
C 73.36 118.55 72.49 120.20 72.00 121.00
C 71.63 121.60 71.50 122.44 71.00 123.00
C 70.55 121.59 74.69 124.07 75.00 124.00
C 78.59 121.63 74.59 119.51 76.00 117.00
C 75.36 117.14 74.50 117.57 74.00 118.00 Z"/>
</g>
<g fill="None" fill-opacity="0.0" stroke="#689F38" stroke-opacity="1.00" stroke-width="0.3"><path d="
M 71.00 123.00 
C 65.70 127.15 69.12 141.19 76.00 135.00
C 76.35 134.47 76.69 133.60 77.00 133.00
C 78.74 129.60 85.48 114.99 76.00 117.00
C 74.59 119.51 78.59 121.63 75.00 124.00
C 74.69 124.07 70.55 121.59 71.00 123.00 Z"/>
</g>
<g fill="None" fill-opacity="0.0" stroke="#783741" stroke-opacity="1.00" stroke-width="0.3"><path d="
M 93.00 119.00 
C 94.00 118.95 95.00 119.04 96.00 119.00
C 97.24 124.35 94.11 128.26 91.00 132.00
C 92.35 131.81 93.84 129.75 95.00 129.00
C 97.61 125.84 100.17 117.11 93.00 118.00
C 93.00 118.00 93.20 118.90 93.00 119.00 Z"/>
</g>
<g fill="None" fill-opacity="0.0" stroke="#11141A" stroke-opacity="1.00" stroke-width="0.3"><path d="
M 132.00 136.00 
C 129.61 143.47 129.76 153.22 127.00 160.00
C 125.67 163.28 124.38 163.93 121.00 165.00
C 110.67 168.27 100.73 161.35 90.00 162.00 C 79.27 162.65 68.08 163.73 58.00 161.00
C 55.59 160.66 53.25 160.36 51.00 160.00
C 46.60 159.30 42.96 159.29 39.00 157.00
C 38.57 156.75 37.29 156.29 37.00 156.00
C 36.44 171.12 33.80 184.11 32.00 199.00
C 32.16 200.04 32.85 200.41 33.00 201.00
C 33.00 199.68 32.91 198.32 33.00 197.00
C 33.24 193.66 34.17 190.24 35.00 187.00
C 35.75 184.05 36.70 180.44 38.00 178.00
C 39.57 179.86 38.71 184.10 42.00 184.00
C 38.88 178.12 38.00 171.53 37.00 165.00
C 36.54 163.08 36.73 160.23 38.00 159.00
C 39.34 157.70 39.75 159.55 41.00 160.00
C 54.15 164.69 68.96 164.97 83.02 164.02 C 97.08 163.08 113.42 169.94 127.00 165.00
C 127.00 166.00 127.00 167.00 127.00 168.00
C 128.52 173.51 126.18 180.32 127.00 186.00
C 127.05 186.35 128.00 186.84 128.00 187.00
C 130.02 175.08 127.29 160.71 130.00 149.00 C 132.72 137.29 137.39 129.45 140.00 118.00
C 140.00 118.00 139.34 118.23 139.00 118.00
C 138.23 124.10 134.57 130.79 132.00 136.00 Z"/>
</g>
<g fill="None" fill-opacity="0.0" stroke="#8BC34A" stroke-opacity="1.00" stroke-width="0.3"><path d="
M 90.00 123.00 
C 89.45 124.55 88.96 126.24 89.00 128.00
C 91.37 127.10 91.34 123.67 94.00 123.00
C 94.57 120.81 91.02 121.17 93.00 119.00
C 90.86 120.10 91.10 121.41 90.00 123.00 Z"/>
</g>
<g fill="None" fill-opacity="0.0" stroke="#2E7D32" stroke-opacity="1.00" stroke-width="0.3"><path d="
M 90.00 123.00 
C 89.35 123.93 88.27 125.51 87.00 126.00
C 85.75 128.91 87.02 132.57 91.00 132.00
C 94.11 128.26 97.24 124.35 96.00 119.00
C 95.00 119.04 94.00 118.95 93.00 119.00
C 91.02 121.17 94.57 120.81 94.00 123.00
C 91.34 123.67 91.37 127.10 89.00 128.00
C 88.96 126.24 89.45 124.55 90.00 123.00 Z"/>
</g>
<g fill="None" fill-opacity="0.0" stroke="#62354B" stroke-opacity="1.00" stroke-width="0.3"><path d="
M 73.00 137.00 
C 74.79 136.81 75.06 136.43 76.00 135.00
C 69.12 141.19 65.70 127.15 71.00 123.00
C 66.67 127.84 64.72 135.36 73.00 137.00 Z"/>
</g>
<g fill="None" fill-opacity="0.0" stroke="#BFC3C6" stroke-opacity="1.00" stroke-width="0.3"><path d="
M 38.00 149.00 
C 37.93 150.24 38.97 157.08 39.00 157.00
C 42.96 159.29 46.60 159.30 51.00 160.00
C 50.76 159.80 51.00 159.00 51.00 159.00
C 47.05 158.88 43.65 157.01 40.00 156.00
C 41.33 151.37 42.43 147.15 42.00 142.00
C 41.94 144.50 40.64 149.17 40.00 152.00
C 39.10 148.51 40.61 142.55 40.00 138.00
C 40.00 135.68 40.12 133.32 40.00 131.00
C 39.66 129.54 37.82 128.24 37.00 127.00
C 39.20 133.18 38.40 142.30 38.00 149.00 Z"/>
</g>
<g fill="None" fill-opacity="0.0" stroke="#5A6471" stroke-opacity="1.00" stroke-width="0.3"><path d="
M 40.00 138.00 
C 40.61 142.55 39.10 148.51 40.00 152.00
C 40.64 149.17 41.94 144.50 42.00 142.00
C 41.80 139.56 39.75 137.00 40.00 138.00 Z"/>
</g>
<g fill="None" fill-opacity="0.0" stroke="#656668" stroke-opacity="1.00" stroke-width="0.3"><path d="
M 37.00 156.00 
C 37.29 156.29 38.57 156.75 39.00 157.00
C 38.97 157.08 37.93 150.24 38.00 149.00
C 38.00 149.00 37.11 148.79 37.00 149.00
C 35.59 151.68 37.07 154.01 37.00 156.00 Z"/>
</g>
<g fill="None" fill-opacity="0.0" stroke="#A8AFB5" stroke-opacity="1.00" stroke-width="0.3"><path d="
M 38.00 159.00 
C 37.23 160.47 38.34 163.35 38.00 165.00
C 40.72 168.07 40.58 173.15 41.00 177.00
C 43.63 172.06 39.63 165.79 41.00 160.00
C 39.75 159.55 39.34 157.70 38.00 159.00 Z"/>
</g>
<g fill="None" fill-opacity="0.0" stroke="#61626B" stroke-opacity="1.00" stroke-width="0.3"><path d="
M 37.00 165.00 
C 37.00 164.97 38.00 165.00 38.00 165.00
C 38.34 163.35 37.23 160.47 38.00 159.00
C 36.73 160.23 36.54 163.08 37.00 165.00 Z"/>
</g>
<g fill="None" fill-opacity="0.0" stroke="#797E86" stroke-opacity="1.00" stroke-width="0.3"><path d="
M 51.00 160.00 
C 53.25 160.36 55.59 160.66 58.00 161.00
C 56.08 160.48 53.32 159.42 51.00 159.00
C 51.00 159.00 50.76 159.80 51.00 160.00 Z"/>
</g>
<g fill="None" fill-opacity="0.0" stroke="#3F4B60" stroke-opacity="1.00" stroke-width="0.3"><path d="
M 121.00 165.00 
C 124.38 163.93 125.67 163.28 127.00 160.00
C 117.33 162.47 105.83 159.39 96.00 160.00
C 104.76 159.19 112.25 166.24 121.00 165.00 Z"/>
</g>
<g fill="None" fill-opacity="0.0" stroke="#27344A" stroke-opacity="1.00" stroke-width="0.3"><path d="
M 38.00 165.00 
C 38.00 165.00 37.00 164.97 37.00 165.00
C 38.00 171.53 38.88 178.12 42.00 184.00
C 38.71 184.10 39.57 179.86 38.00 178.00
C 36.70 180.44 35.75 184.05 35.00 187.00
C 34.65 189.57 34.29 195.99 34.00 199.00
C 34.57 203.62 34.42 209.36 34.00 214.00
C 35.10 215.01 35.14 216.64 36.00 218.00
C 34.72 218.27 33.28 217.23 33.00 216.00
C 30.96 217.67 31.49 218.56 34.00 221.00
C 35.79 222.05 37.96 224.10 40.00 225.00
C 42.94 224.08 44.10 227.90 47.00 227.00
C 47.57 229.86 46.08 229.71 44.00 230.00
C 44.25 230.28 44.00 231.00 44.00 231.00
C 49.91 233.43 55.90 233.47 62.00 235.00
C 61.13 233.81 60.87 232.49 61.00 231.00
C 62.56 231.19 64.47 232.50 65.00 230.00
C 62.79 230.09 58.13 229.47 58.00 227.00
C 61.31 226.58 63.52 229.92 67.00 229.00
C 74.21 227.49 71.78 228.95 78.00 230.00
C 78.91 230.15 80.08 230.02 81.00 230.00
C 81.49 229.58 80.60 227.54 81.00 227.00
C 84.00 227.60 92.13 229.03 90.00 224.00
C 92.40 225.65 95.40 226.57 99.00 226.00
C 99.42 220.82 109.25 222.72 108.00 228.00
C 109.82 223.57 114.37 225.76 117.97 220.97 C 121.57 216.18 125.53 214.64 126.00 209.00
C 120.82 195.81 127.56 180.17 127.00 168.00
C 127.00 167.00 127.00 166.00 127.00 165.00
C 113.42 169.94 97.08 163.08 83.02 164.02 C 68.96 164.97 54.15 164.69 41.00 160.00
C 39.63 165.79 43.63 172.06 41.00 177.00
C 40.58 173.15 40.72 168.07 38.00 165.00
M 47.00 224.00 
C 45.01 223.27 41.86 223.46 41.00 221.00
C 43.23 220.89 46.07 221.79 47.00 224.00
M 51.00 228.00 
C 51.16 233.05 46.57 228.33 51.00 228.00 Z"/>
</g>
<g fill="None" fill-opacity="0.0" stroke="#CED0D3" stroke-opacity="1.00" stroke-width="0.3"><path d="
M 126.00 209.00 
C 126.21 209.55 126.74 210.15 127.00 211.00
C 127.03 208.01 127.31 203.18 127.00 200.00
C 126.40 197.74 126.58 190.29 127.00 186.00
C 126.18 180.32 128.52 173.51 127.00 168.00
C 127.56 180.17 120.82 195.81 126.00 209.00 Z"/>
</g>
<g fill="None" fill-opacity="0.0" stroke="#5B5B5B" stroke-opacity="1.00" stroke-width="0.3"><path d="
M 127.00 200.00 
C 126.56 195.50 127.30 191.17 128.00 187.00
C 128.00 186.84 127.05 186.35 127.00 186.00
C 126.58 190.29 126.40 197.74 127.00 200.00 Z"/>
</g>
<g fill="None" fill-opacity="0.0" stroke="#9CA3AA" stroke-opacity="1.00" stroke-width="0.3"><path d="
M 33.00 197.00 
C 33.06 197.31 33.90 198.20 34.00 199.00
C 34.29 195.99 34.65 189.57 35.00 187.00
C 34.17 190.24 33.24 193.66 33.00 197.00 Z"/>
</g>
<g fill="None" fill-opacity="0.0" stroke="#F1F3F4" stroke-opacity="1.00" stroke-width="0.3"><path d="
M 33.00 201.00 
C 33.00 205.33 33.00 209.67 33.00 214.00
C 33.34 213.77 34.00 214.00 34.00 214.00
C 34.42 209.36 34.57 203.62 34.00 199.00
C 33.90 198.20 33.06 197.31 33.00 197.00
C 32.91 198.32 33.00 199.68 33.00 201.00 Z"/>
</g>
<g fill="None" fill-opacity="0.0" stroke="#495161" stroke-opacity="1.00" stroke-width="0.3"><path d="
M 32.00 221.00 
C 32.50 221.00 33.63 220.78 34.00 221.00
C 31.49 218.56 30.96 217.67 33.00 216.00
C 32.80 215.60 33.00 214.50 33.00 214.00
C 33.00 209.67 33.00 205.33 33.00 201.00
C 32.85 200.41 32.16 200.04 32.00 199.00
C 30.21 205.43 28.68 212.91 28.00 220.00
C 29.60 219.87 30.46 220.99 32.00 221.00 Z"/>
</g>
<g fill="None" fill-opacity="0.0" stroke="#465265" stroke-opacity="1.00" stroke-width="0.3"><path d="
M 81.00 230.00 
C 83.00 229.95 85.00 230.04 87.00 230.00
C 85.14 231.81 77.63 232.00 78.00 230.00
C 71.78 228.95 74.21 227.49 67.00 229.00
C 66.50 229.10 66.03 229.96 65.00 230.00
C 64.47 232.50 62.56 231.19 61.00 231.00
C 60.87 232.49 61.13 233.81 62.00 235.00
C 62.69 235.17 62.78 235.89 64.00 236.00
C 66.31 236.21 68.68 235.85 71.00 236.00
C 70.14 237.84 67.07 241.56 72.00 241.00
C 72.00 241.00 71.93 240.49 72.00 240.00
C 72.20 238.57 73.58 237.46 72.00 236.00
C 79.57 233.85 86.95 239.88 92.00 235.00
C 93.25 237.71 95.27 238.92 96.00 242.00
C 96.95 243.68 97.83 243.69 98.00 246.00
L 99.00 246.00
C 98.82 245.11 99.98 244.80 100.00 244.00
C 100.09 239.39 99.99 237.03 104.00 235.00
C 104.23 241.51 106.64 241.23 106.00 234.00
C 108.54 234.00 110.26 236.60 113.00 236.00
C 114.73 236.39 113.75 236.31 115.00 236.00
C 119.33 234.94 123.91 232.14 129.00 231.00
C 130.51 225.87 128.51 216.02 127.00 211.00
C 126.74 210.15 126.21 209.55 126.00 209.00
C 125.53 214.64 121.57 216.18 117.97 220.97 C 114.37 225.76 109.82 223.57 108.00 228.00
C 109.25 222.72 99.42 220.82 99.00 226.00
C 95.40 226.57 92.40 225.65 90.00 224.00
C 92.13 229.03 84.00 227.60 81.00 227.00
C 80.60 227.54 81.49 229.58 81.00 230.00
M 127.00 225.00 
C 126.34 230.97 122.86 226.27 127.00 225.00
M 94.00 232.00 
C 93.07 236.94 87.44 231.23 94.00 232.00
M 75.00 235.00 
C 69.95 235.16 74.67 230.57 75.00 235.00
M 85.00 234.00 
C 82.87 235.23 78.70 235.88 77.00 234.00
C 78.64 232.50 83.43 232.28 85.00 234.00 Z"/>
</g>
<g fill="None" fill-opacity="0.0" stroke="#9FA9B4" stroke-opacity="1.00" stroke-width="0.3"><path d="
M 33.00 216.00 
C 33.28 217.23 34.72 218.27 36.00 218.00
C 35.14 216.64 35.10 215.01 34.00 214.00
C 34.00 214.00 33.34 213.77 33.00 214.00
C 33.00 214.50 32.80 215.60 33.00 216.00 Z"/>
</g>
<g fill="None" fill-opacity="0.0" stroke="#8B939E" stroke-opacity="1.00" stroke-width="0.3"><path d="
M 40.00 225.00 
C 37.96 224.10 35.79 222.05 34.00 221.00
C 33.63 220.78 32.50 221.00 32.00 221.00
C 32.00 222.00 32.00 223.00 32.00 224.00
C 34.62 224.83 37.32 224.43 40.00 225.00 Z"/>
</g>
<g fill="None" fill-opacity="0.0" stroke="#828D9D" stroke-opacity="1.00" stroke-width="0.3"><path d="
M 47.00 224.00 
C 46.07 221.79 43.23 220.89 41.00 221.00
C 41.86 223.46 45.01 223.27 47.00 224.00 Z"/>
</g>
<g fill="None" fill-opacity="0.0" stroke="#818D9D" stroke-opacity="1.00" stroke-width="0.3"><path d="
M 127.00 225.00 
C 122.86 226.27 126.34 230.97 127.00 225.00 Z"/>
</g>
<g fill="None" fill-opacity="0.0" stroke="#5C636A" stroke-opacity="1.00" stroke-width="0.3"><path d="
M 44.00 231.00 
C 44.00 231.00 44.25 230.28 44.00 230.00
C 42.66 228.38 40.11 227.40 38.00 227.00
C 39.13 229.09 41.85 230.12 44.00 231.00 Z"/>
</g>
<g fill="None" fill-opacity="0.0" stroke="#677486" stroke-opacity="1.00" stroke-width="0.3"><path d="
M 65.00 230.00 
C 66.03 229.96 66.50 229.10 67.00 229.00
C 63.52 229.92 61.31 226.58 58.00 227.00
C 58.13 229.47 62.79 230.09 65.00 230.00 Z"/>
</g>
<g fill="None" fill-opacity="0.0" stroke="#7B8897" stroke-opacity="1.00" stroke-width="0.3"><path d="
M 51.00 228.00 
C 46.57 228.33 51.16 233.05 51.00 228.00 Z"/>
</g>
<g fill="None" fill-opacity="0.0" stroke="#717F92" stroke-opacity="1.00" stroke-width="0.3"><path d="
M 81.00 230.00 
C 80.08 230.02 78.91 230.15 78.00 230.00
C 77.63 232.00 85.14 231.81 87.00 230.00
C 85.00 230.04 83.00 229.95 81.00 230.00 Z"/>
</g>
<g fill="None" fill-opacity="0.0" stroke="#9EA4AE" stroke-opacity="1.00" stroke-width="0.3"><path d="
M 115.00 236.00 
C 116.45 236.95 114.26 238.59 114.00 240.00
C 112.04 239.14 114.68 237.34 113.00 236.00
C 110.26 236.60 108.54 234.00 106.00 234.00
C 106.64 241.23 104.23 241.51 104.00 235.00
C 99.99 237.03 100.09 239.39 100.00 244.00
C 102.96 241.00 103.66 241.34 107.00 244.00
C 106.59 236.91 115.23 243.58 117.00 238.00
C 118.32 240.57 120.02 238.89 122.00 240.00
C 119.47 233.25 127.80 235.07 129.00 231.00
C 123.91 232.14 119.33 234.94 115.00 236.00 Z"/>
</g>
<g fill="None" fill-opacity="0.0" stroke="#97A1B3" stroke-opacity="1.00" stroke-width="0.3"><path d="
M 94.00 232.00 
C 87.44 231.23 93.07 236.94 94.00 232.00 Z"/>
</g>
<g fill="None" fill-opacity="0.0" stroke="#738193" stroke-opacity="1.00" stroke-width="0.3"><path d="
M 75.00 235.00 
C 74.67 230.57 69.95 235.16 75.00 235.00 Z"/>
</g>
<g fill="None" fill-opacity="0.0" stroke="#9BA4B2" stroke-opacity="1.00" stroke-width="0.3"><path d="
M 85.00 234.00 
C 83.43 232.28 78.64 232.50 77.00 234.00
C 78.70 235.88 82.87 235.23 85.00 234.00 Z"/>
</g>
<g fill="None" fill-opacity="0.0" stroke="#A0A5AE" stroke-opacity="1.00" stroke-width="0.3"><path d="
M 72.00 240.00 
C 79.15 238.14 81.59 249.30 89.00 242.00
C 89.54 243.31 90.41 244.44 90.00 246.00
L 92.00 246.00
C 90.26 243.21 93.38 240.83 96.00 242.00
C 95.27 238.92 93.25 237.71 92.00 235.00
C 86.95 239.88 79.57 233.85 72.00 236.00
C 73.58 237.46 72.20 238.57 72.00 240.00
M 82.00 237.00 
C 82.16 242.05 77.57 237.33 82.00 237.00
M 85.00 239.00 
C 87.21 244.35 82.09 242.55 85.00 239.00 Z"/>
</g>
<g fill="None" fill-opacity="0.0" stroke="#8F96A0" stroke-opacity="1.00" stroke-width="0.3"><path d="
M 72.00 241.00 
C 67.07 241.56 70.14 237.84 71.00 236.00
C 68.68 235.85 66.31 236.21 64.00 236.00
C 64.00 237.33 64.00 238.67 64.00 240.00
C 66.30 236.58 66.10 240.58 66.00 243.00
C 68.02 242.93 70.74 242.43 72.00 241.00 Z"/>
</g>
<g fill="None" fill-opacity="0.0" stroke="#767C89" stroke-opacity="1.00" stroke-width="0.3"><path d="
M 115.00 236.00 
C 113.75 236.31 114.73 236.39 113.00 236.00
C 114.68 237.34 112.04 239.14 114.00 240.00
C 114.26 238.59 116.45 236.95 115.00 236.00 Z"/>
</g>
<g fill="None" fill-opacity="0.0" stroke="#5B626E" stroke-opacity="1.00" stroke-width="0.3"><path d="
M 82.00 237.00 
C 77.57 237.33 82.16 242.05 82.00 237.00 Z"/>
</g>
<g fill="None" fill-opacity="0.0" stroke="#E2E6E9" stroke-opacity="1.00" stroke-width="0.3"><path d="
M 85.00 239.00 
C 82.09 242.55 87.21 244.35 85.00 239.00 Z"/>
</g>
<g fill="None" fill-opacity="0.0" stroke="#EBEDEF" stroke-opacity="1.00" stroke-width="0.3"><path d="
M 92.00 246.00 
L 98.00 246.00
C 97.83 243.69 96.95 243.68 96.00 242.00
C 93.38 240.83 90.26 243.21 92.00 246.00 Z"/>
</g>
<g fill="#FDFDFE" fill-opacity="1.00" stroke="None">
<path d="
M 0.00 246.00 
L 90.00 246.00
C 90.41 244.44 89.54 243.31 89.00 242.00
C 81.59 249.30 79.15 238.14 72.00 240.00
C 71.93 240.49 72.00 241.00 72.00 241.00
C 70.74 242.43 68.02 242.93 66.00 243.00
C 66.10 240.58 66.30 236.58 64.00 240.00
C 64.00 238.67 64.00 237.33 64.00 236.00
C 62.78 235.89 62.69 235.17 62.00 235.00
C 55.90 233.47 49.91 233.43 44.00 231.00
C 41.85 230.12 39.13 229.09 38.00 227.00
C 40.11 227.40 42.66 228.38 44.00 230.00
C 46.08 229.71 47.57 229.86 47.00 227.00
C 44.10 227.90 42.94 224.08 40.00 225.00
C 37.32 224.43 34.62 224.83 32.00 224.00
C 32.00 223.00 32.00 222.00 32.00 221.00
C 30.46 220.99 29.60 219.87 28.00 220.00
C 28.68 212.91 30.21 205.43 32.00 199.00
C 33.80 184.11 36.44 171.12 37.00 156.00
C 37.07 154.01 35.59 151.68 37.00 149.00
C 35.14 144.01 37.28 132.71 35.22 127.78 C 33.16 122.84 26.41 113.26 30.00 109.00
C 29.01 107.35 28.14 104.92 28.00 103.00
C 27.44 96.81 29.07 90.11 28.00 84.00
C 26.54 83.54 27.07 81.19 27.00 80.00
C 26.57 72.65 24.89 60.90 31.31 55.31 C 37.72 49.71 34.59 39.48 38.00 33.00
C 38.25 31.22 43.59 20.45 46.00 21.00
C 47.52 19.63 51.87 27.01 52.77 29.23 C 53.67 31.45 56.99 38.75 56.00 42.00
C 59.43 39.87 62.59 34.85 68.00 36.00
C 71.72 36.07 77.08 37.40 79.00 41.00
C 80.44 43.09 79.79 46.71 81.00 49.00
C 82.33 49.00 83.67 49.00 85.00 49.00
C 89.01 48.21 92.19 49.89 95.00 52.00
C 99.61 55.46 101.89 59.07 105.25 63.75 C 108.61 68.43 114.71 68.81 119.00 72.00
C 122.06 74.27 124.27 77.62 127.00 80.00
C 130.05 82.27 132.56 84.03 135.00 87.00
C 136.28 88.55 138.87 90.63 139.00 93.00
C 140.58 97.92 138.45 104.82 139.00 110.00
C 139.17 111.65 139.23 112.54 140.00 114.00
C 140.21 114.39 140.00 115.00 140.00 115.00
C 141.63 116.60 140.31 116.63 140.00 118.00
C 137.39 129.45 132.72 137.29 130.00 149.00 C 127.29 160.71 130.02 175.08 128.00 187.00
C 127.30 191.17 126.56 195.50 127.00 200.00
C 127.31 203.18 127.03 208.01 127.00 211.00
C 128.51 216.02 130.51 225.87 129.00 231.00
C 127.80 235.07 119.47 233.25 122.00 240.00
C 120.02 238.89 118.32 240.57 117.00 238.00
C 115.23 243.58 106.59 236.91 107.00 244.00
C 103.66 241.34 102.96 241.00 100.00 244.00
C 99.98 244.80 98.82 245.11 99.00 246.00
L 166.00 246.00
L 166.00 0.00
L 0.00 0.00
L 0.00 246.00 Z"/>
</g>
<g fill="#6A5C60" fill-opacity="1.00" stroke="None">
<path d="
M 38.00 33.00 
C 38.11 32.79 39.00 33.00 39.00 33.00
C 41.31 29.89 41.81 25.05 46.00 23.00
C 46.40 22.80 47.00 23.00 47.00 23.00
C 46.98 22.91 45.89 20.97 46.00 21.00
C 43.59 20.45 38.25 31.22 38.00 33.00 Z"/>
</g>
<g fill="#322321" fill-opacity="1.00" stroke="None">
<path d="
M 47.00 23.00 
C 47.09 23.48 47.00 24.50 47.00 25.00
C 47.11 25.26 47.75 25.75 48.00 26.00
C 48.25 26.25 48.77 26.72 49.00 27.00
C 52.97 31.76 55.13 38.68 55.00 45.00 C 54.87 51.32 52.93 59.30 50.69 64.69 C 48.46 70.09 46.57 79.08 46.01 84.01 C 45.45 88.93 45.84 103.76 50.00 104.00
C 49.76 103.81 50.00 103.00 50.00 103.00
C 47.98 100.41 49.64 97.07 50.00 94.00
C 50.06 93.51 50.12 92.47 50.00 92.00
C 49.91 91.65 48.99 91.14 49.00 91.00
C 48.55 92.54 49.34 94.43 49.00 96.00
C 45.39 87.42 48.51 73.28 52.32 64.32 C 56.13 55.36 54.10 41.19 65.00 38.00
C 65.56 37.75 67.49 36.09 68.00 36.00
C 62.59 34.85 59.43 39.87 56.00 42.00
C 56.99 38.75 53.67 31.45 52.77 29.23 C 51.87 27.01 47.52 19.63 46.00 21.00
C 45.89 20.97 46.98 22.91 47.00 23.00 Z"/>
</g>
<g fill="#A8E6A3" fill-opacity="1.00" stroke="None">
<path d="
M 39.00 33.00 
C 39.26 33.24 39.00 35.61 39.00 36.00
C 39.00 39.41 38.11 44.45 40.00 47.00
C 40.00 37.99 39.94 29.93 46.00 23.00
C 41.81 25.05 41.31 29.89 39.00 33.00 Z"/>
</g>
<g fill="#58C266" fill-opacity="1.00" stroke="None">
<path d="
M 40.00 47.00 
C 40.00 47.50 40.00 48.00 40.00 48.00
C 45.31 44.84 46.71 35.63 47.00 30.00
C 47.08 28.34 47.00 26.66 47.00 25.00
C 47.00 24.50 47.09 23.48 47.00 23.00
C 47.00 23.00 46.40 22.80 46.00 23.00
C 39.94 29.93 40.00 37.99 40.00 47.00 Z"/>
</g>
<g fill="#3B944B" fill-opacity="1.00" stroke="None">
<path d="
M 47.00 30.00 
C 47.26 28.92 48.54 27.75 48.00 26.00
C 47.75 25.75 47.11 25.26 47.00 25.00
C 47.00 26.66 47.08 28.34 47.00 30.00 Z"/>
</g>
<g fill="#461F22" fill-opacity="1.00" stroke="None">
<path d="
M 47.00 30.00 
C 46.71 35.63 45.31 44.84 40.00 48.00
C 39.88 48.26 39.26 48.88 39.00 49.00
C 44.68 49.19 46.85 40.31 48.00 36.00
C 48.68 33.44 49.59 29.79 49.00 27.00
C 48.77 26.72 48.25 26.25 48.00 26.00
C 48.54 27.75 47.26 28.92 47.00 30.00 Z"/>
</g>
<g fill="#ECB9A2" fill-opacity="1.00" stroke="None">
<path d="
M 48.00 36.00 
C 47.69 44.02 52.46 55.14 46.68 63.68 C 40.90 72.22 40.50 81.98 39.00 92.00
C 35.89 92.45 36.93 87.97 35.00 87.00
C 27.87 91.01 30.46 103.21 33.00 111.00
C 40.66 115.40 50.03 108.11 58.00 110.00
C 58.07 110.16 58.93 105.26 59.00 105.00
C 59.21 105.56 51.59 105.23 50.00 104.00
C 45.84 103.76 45.45 88.93 46.01 84.01 C 46.57 79.08 48.46 70.09 50.69 64.69 C 52.93 59.30 54.87 51.32 55.00 45.00 C 55.13 38.68 52.97 31.76 49.00 27.00
C 49.59 29.79 48.68 33.44 48.00 36.00 Z"/>
</g>
<g fill="#2A2929" fill-opacity="1.00" stroke="None">
<path d="
M 27.00 80.00 
C 27.00 80.04 28.00 80.00 28.00 80.00
C 26.30 69.62 30.20 54.82 38.00 48.00
C 38.99 46.11 38.42 38.64 39.00 36.00
C 39.00 35.61 39.26 33.24 39.00 33.00
C 39.00 33.00 38.11 32.79 38.00 33.00
C 34.59 39.48 37.72 49.71 31.31 55.31 C 24.89 60.90 26.57 72.65 27.00 80.00 Z"/>
</g>
<g fill="#A4A2A1" fill-opacity="1.00" stroke="None">
<path d="
M 38.00 48.00 
C 37.79 48.39 38.00 49.00 38.00 49.00
C 38.25 49.25 39.00 49.00 39.00 49.00
C 39.26 48.88 39.88 48.26 40.00 48.00
C 40.00 48.00 40.00 47.50 40.00 47.00
C 38.11 44.45 39.00 39.41 39.00 36.00
C 38.42 38.64 38.99 46.11 38.00 48.00 Z"/>
</g>
<g fill="#F8D6C5" fill-opacity="1.00" stroke="None">
<path d="
M 39.00 49.00 
C 39.00 49.00 38.25 49.25 38.00 49.00
C 35.70 54.84 26.04 65.94 36.00 68.00
C 24.80 65.55 32.97 80.99 29.00 86.00
C 29.00 91.59 29.50 97.44 29.00 103.00
C 30.04 104.34 30.81 107.07 31.00 109.00
C 31.83 109.79 31.94 110.39 33.00 111.00
C 30.46 103.21 27.87 91.01 35.00 87.00
C 36.93 87.97 35.89 92.45 39.00 92.00
C 40.50 81.98 40.90 72.22 46.68 63.68 C 52.46 55.14 47.69 44.02 48.00 36.00
C 46.85 40.31 44.68 49.19 39.00 49.00 Z"/>
</g>
<g fill="#9D9996" fill-opacity="1.00" stroke="None">
<path d="
M 65.00 38.00 
C 69.18 37.29 73.50 37.98 77.00 40.00
C 77.29 40.17 78.88 40.83 79.00 41.00
C 77.08 37.40 71.72 36.07 68.00 36.00
C 67.49 36.09 65.56 37.75 65.00 38.00 Z"/>
</g>
<g fill="#F4D1C0" fill-opacity="1.00" stroke="None">
<path d="
M 49.00 91.00 
C 49.59 88.97 50.56 85.63 52.00 84.00
C 52.43 82.68 54.66 81.12 56.00 81.00
C 57.45 80.27 58.18 81.51 59.00 82.00
C 61.75 82.22 61.39 85.46 62.00 87.00
C 62.26 87.67 63.98 90.43 64.00 91.00
C 67.42 80.08 71.12 68.77 75.00 58.00
C 75.33 54.35 74.34 44.59 77.00 41.00
C 76.76 40.70 77.00 40.00 77.00 40.00
C 73.50 37.98 69.18 37.29 65.00 38.00
C 54.10 41.19 56.13 55.36 52.32 64.32 C 48.51 73.28 45.39 87.42 49.00 96.00
C 49.34 94.43 48.55 92.54 49.00 91.00 Z"/>
</g>
<g fill="#523D39" fill-opacity="1.00" stroke="None">
<path d="
M 77.00 41.00 
C 81.91 47.04 76.97 52.53 75.00 58.00
C 71.12 68.77 67.42 80.08 64.00 91.00
C 63.89 91.35 63.35 91.97 63.00 92.00
C 62.25 94.77 62.45 96.17 60.00 98.00
C 59.87 98.35 59.12 98.74 59.00 99.00
C 58.92 99.49 59.00 100.00 59.00 100.00
C 62.53 100.87 59.53 102.94 59.00 105.00
C 58.93 105.26 58.07 110.16 58.00 110.00
C 58.13 110.03 60.00 111.00 60.00 111.00
C 60.81 108.55 63.08 105.84 65.00 104.00
C 65.25 103.76 65.00 103.00 65.00 103.00
C 63.70 104.00 62.39 105.21 61.00 106.00
C 62.53 96.98 66.02 87.91 70.00 80.00
C 72.85 72.10 73.55 58.07 80.00 52.00
C 81.80 50.30 82.14 49.88 85.00 50.00
C 84.98 50.00 85.00 49.00 85.00 49.00
C 83.67 49.00 82.33 49.00 81.00 49.00
C 79.79 46.71 80.44 43.09 79.00 41.00
C 78.88 40.83 77.29 40.17 77.00 40.00
C 77.00 40.00 76.76 40.70 77.00 41.00 Z"/>
</g>
<g fill="#E4AC94" fill-opacity="1.00" stroke="None">
<path d="
M 75.00 58.00 
C 76.97 52.53 81.91 47.04 77.00 41.00
C 74.34 44.59 75.33 54.35 75.00 58.00 Z"/>
</g>
<g fill="#EDE8E3" fill-opacity="1.00" stroke="None">
<path d="
M 28.00 80.00 
C 28.23 81.42 28.99 82.33 29.00 84.00
C 29.00 84.50 29.00 85.50 29.00 86.00
C 32.97 80.99 24.80 65.55 36.00 68.00
C 26.04 65.94 35.70 54.84 38.00 49.00
C 38.00 49.00 37.79 48.39 38.00 48.00
C 30.20 54.82 26.30 69.62 28.00 80.00 Z"/>
</g>
<g fill="#9C8178" fill-opacity="1.00" stroke="None">
<path d="
M 85.00 50.00 
C 90.20 49.81 91.54 50.88 95.00 54.00
C 96.12 55.01 98.06 55.93 99.00 57.00
C 97.90 55.46 96.35 53.19 95.00 52.00
C 92.19 49.89 89.01 48.21 85.00 49.00
C 85.00 49.00 84.98 50.00 85.00 50.00 Z"/>
</g>
<g fill="#F7D7C8" fill-opacity="1.00" stroke="None">
<path d="
M 80.00 52.00 
C 79.35 52.81 78.71 58.94 78.00 61.00
C 81.80 55.71 80.61 61.50 79.02 65.02 C 77.44 68.55 75.69 73.08 75.00 77.00
C 71.83 75.42 76.95 71.49 74.00 70.00
C 72.84 73.28 72.52 77.53 70.00 80.00
C 66.02 87.91 62.53 96.98 61.00 106.00
C 62.39 105.21 63.70 104.00 65.00 103.00
C 66.37 101.42 67.86 102.20 69.00 103.00
C 75.18 105.87 72.74 113.65 70.00 118.00
C 74.90 115.69 76.02 108.52 79.00 104.00
C 80.74 97.50 86.40 87.03 85.99 78.99 C 85.58 70.96 96.77 60.64 95.00 54.00
C 91.54 50.88 90.20 49.81 85.00 50.00
C 82.14 49.88 81.80 50.30 80.00 52.00 Z"/>
</g>
<g fill="#F1E6DE" fill-opacity="1.00" stroke="None">
<path d="
M 70.00 80.00 
C 72.52 77.53 72.84 73.28 74.00 70.00
C 76.95 71.49 71.83 75.42 75.00 77.00
C 75.69 73.08 77.44 68.55 79.02 65.02 C 80.61 61.50 81.80 55.71 78.00 61.00
C 78.71 58.94 79.35 52.81 80.00 52.00
C 73.55 58.07 72.85 72.10 70.00 80.00 Z"/>
</g>
<g fill="#2D221F" fill-opacity="1.00" stroke="None">
<path d="
M 99.00 57.00 
C 101.21 60.10 103.31 63.77 105.00 67.00
C 103.67 67.00 102.33 67.00 101.00 67.00
C 101.03 67.00 101.00 68.00 101.00 68.00
C 104.51 68.42 107.61 69.09 111.00 70.00
C 119.60 72.30 124.76 79.98 132.00 85.00
C 132.93 85.64 134.20 86.30 135.00 87.00
C 132.56 84.03 130.05 82.27 127.00 80.00
C 123.94 77.73 121.73 74.38 119.00 72.00
C 114.71 68.81 108.61 68.43 105.25 63.75 C 101.89 59.07 99.61 55.46 95.00 52.00
C 96.35 53.19 97.90 55.46 99.00 57.00 Z"/>
</g>
<g fill="#ECBBA4" fill-opacity="1.00" stroke="None">
<path d="
M 79.00 104.00 
C 84.49 93.26 88.18 80.82 95.00 71.00
C 96.96 68.18 97.41 68.54 101.00 67.00
C 102.33 67.00 103.67 67.00 105.00 67.00
C 103.31 63.77 101.21 60.10 99.00 57.00
C 98.06 55.93 96.12 55.01 95.00 54.00
C 96.77 60.64 85.58 70.96 85.99 78.99 C 86.40 87.03 80.74 97.50 79.00 104.00 Z"/>
</g>
<g fill="#7D584E" fill-opacity="1.00" stroke="None">
<path d="
M 95.00 71.00 
C 95.01 71.18 96.04 71.69 96.00 72.00
C 97.19 70.58 99.51 69.04 101.00 68.00
C 101.00 68.00 101.03 67.00 101.00 67.00
C 97.41 68.54 96.96 68.18 95.00 71.00 Z"/>
</g>
<g fill="#F6D2C2" fill-opacity="1.00" stroke="None">
<path d="
M 96.00 72.00 
C 90.97 78.00 89.70 86.95 85.69 93.69 C 81.69 100.44 78.42 107.91 75.00 115.00
C 74.46 115.40 78.60 115.81 79.00 115.00
C 82.61 118.32 83.68 122.48 82.00 127.00
C 91.44 110.24 98.90 90.52 113.00 76.00
C 112.01 73.53 107.32 71.90 111.00 70.00
C 107.61 69.09 104.51 68.42 101.00 68.00
C 99.51 69.04 97.19 70.58 96.00 72.00 Z"/>
</g>
<g fill="#EBBAA3" fill-opacity="1.00" stroke="None">
<path d="
M 82.00 127.00 
C 81.12 128.56 79.74 130.12 79.00 132.00
C 90.99 123.61 91.85 106.15 101.00 96.00
C 100.87 98.95 98.12 101.03 98.00 104.00
C 100.84 99.21 105.35 93.14 108.30 88.30 C 111.26 83.46 119.29 77.35 121.00 81.00
C 121.98 83.10 122.22 85.77 123.00 88.00
C 119.72 88.69 120.76 90.30 121.00 93.00
C 115.77 93.97 113.56 102.87 110.08 108.08 C 106.59 113.28 101.21 119.71 99.00 125.00
C 100.67 123.89 102.13 122.70 104.00 122.00
C 111.40 113.68 118.34 102.97 128.00 97.00
C 127.08 100.09 119.84 102.51 124.00 105.00
C 119.64 103.81 117.90 108.22 116.00 111.00
C 122.57 111.05 128.09 115.18 135.00 114.00
C 135.15 108.63 137.34 102.84 138.00 98.00
C 138.00 96.86 137.67 95.09 138.00 94.00
C 137.52 91.41 134.19 86.91 132.00 85.00
C 124.76 79.98 119.60 72.30 111.00 70.00
C 107.32 71.90 112.01 73.53 113.00 76.00
C 98.90 90.52 91.44 110.24 82.00 127.00 Z"/>
</g>
<g fill="#361F20" fill-opacity="1.00" stroke="None">
<path d="
M 79.00 104.00 
C 76.02 108.52 74.90 115.69 70.00 118.00
C 72.74 113.65 75.18 105.87 69.00 103.00
C 69.60 103.42 70.79 105.29 71.00 106.00
C 72.76 112.02 68.89 115.53 67.23 121.23 C 65.57 126.93 57.35 125.58 58.00 118.00
C 57.79 118.25 57.00 118.00 57.00 118.00
C 55.95 122.43 59.97 126.64 64.01 125.99 C 68.04 125.34 70.26 122.36 72.00 121.00
C 72.49 120.20 73.36 118.55 74.00 118.00
C 74.43 116.83 74.53 115.97 75.00 115.00
C 78.42 107.91 81.69 100.44 85.69 93.69 C 89.70 86.95 90.97 78.00 96.00 72.00
C 96.04 71.69 95.01 71.18 95.00 71.00
C 88.18 80.82 84.49 93.26 79.00 104.00 Z"/>
</g>
<g fill="#717274" fill-opacity="1.00" stroke="None">
<path d="
M 127.00 80.00 
C 124.27 77.62 122.06 74.27 119.00 72.00
C 121.73 74.38 123.94 77.73 127.00 80.00 Z"/>
</g>
<g fill="#4B352F" fill-opacity="1.00" stroke="None">
<path d="
M 98.00 104.00 
C 95.06 111.39 90.84 119.50 86.00 126.00
C 86.16 125.77 87.00 126.00 87.00 126.00
C 88.27 125.51 89.35 123.93 90.00 123.00
C 91.10 121.41 90.86 120.10 93.00 119.00
C 93.20 118.90 93.00 118.00 93.00 118.00
C 95.29 108.23 104.33 99.41 108.77 90.77 C 113.21 82.13 115.53 85.96 121.00 81.00
C 119.29 77.35 111.26 83.46 108.30 88.30 C 105.35 93.14 100.84 99.21 98.00 104.00 Z"/>
</g>
<g fill="#5F5E5E" fill-opacity="1.00" stroke="None">
<path d="
M 28.00 84.00 
C 28.46 84.14 29.00 84.00 29.00 84.00
C 28.99 82.33 28.23 81.42 28.00 80.00
C 28.00 80.00 27.00 80.04 27.00 80.00
C 27.07 81.19 26.54 83.54 28.00 84.00 Z"/>
</g>
<g fill="#9C827D" fill-opacity="1.00" stroke="None">
<path d="
M 52.00 84.00 
C 52.22 83.75 53.00 84.00 53.00 84.00
C 53.24 83.96 54.87 83.13 55.00 83.00
C 55.26 82.74 55.81 81.10 56.00 81.00
C 54.66 81.12 52.43 82.68 52.00 84.00 Z"/>
</g>
<g fill="#B25C6C" fill-opacity="1.00" stroke="None">
<path d="
M 55.00 83.00 
C 55.82 82.82 57.25 83.37 58.00 83.00
C 58.27 82.87 58.94 82.23 59.00 82.00
C 58.18 81.51 57.45 80.27 56.00 81.00
C 55.81 81.10 55.26 82.74 55.00 83.00 Z"/>
</g>
<g fill="#F5D4C4" fill-opacity="1.00" stroke="None">
<path d="
M 93.00 118.00 
C 100.17 117.11 97.61 125.84 95.00 129.00
C 98.60 126.67 101.08 125.28 104.00 122.00
C 102.13 122.70 100.67 123.89 99.00 125.00
C 101.21 119.71 106.59 113.28 110.08 108.08 C 113.56 102.87 115.77 93.97 121.00 93.00
C 120.76 90.30 119.72 88.69 123.00 88.00
C 122.22 85.77 121.98 83.10 121.00 81.00
C 115.53 85.96 113.21 82.13 108.77 90.77 C 104.33 99.41 95.29 108.23 93.00 118.00 Z"/>
</g>
<g fill="#662731" fill-opacity="1.00" stroke="None">
<path d="
M 58.00 83.00 
C 63.04 87.74 60.00 92.92 59.00 99.00
C 59.12 98.74 59.87 98.35 60.00 98.00
C 60.73 96.07 61.27 93.95 62.00 92.00
C 61.51 90.58 62.17 88.50 62.00 87.00
C 61.39 85.46 61.75 82.22 59.00 82.00
C 58.94 82.23 58.27 82.87 58.00 83.00 Z"/>
</g>
<g fill="#689F38" fill-opacity="1.00" stroke="None">
<path d="
M 53.00 84.00 
C 53.24 85.08 52.24 86.90 52.00 88.00
C 51.50 90.31 50.56 92.17 50.00 94.00
C 49.64 97.07 47.98 100.41 50.00 103.00
C 54.09 104.12 57.66 104.69 59.00 100.00
C 59.00 100.00 58.92 99.49 59.00 99.00
C 60.00 92.92 63.04 87.74 58.00 83.00
C 57.25 83.37 55.82 82.82 55.00 83.00
C 54.87 83.13 53.24 83.96 53.00 84.00
M 56.00 87.00 
C 56.70 95.31 49.16 88.67 56.00 87.00 Z"/>
</g>
<g fill="#121112" fill-opacity="1.00" stroke="None">
<path d="
M 28.00 103.00 
C 28.00 103.04 29.00 103.00 29.00 103.00
C 29.50 97.44 29.00 91.59 29.00 86.00
C 29.00 85.50 29.00 84.50 29.00 84.00
C 29.00 84.00 28.46 84.14 28.00 84.00
C 29.07 90.11 27.44 96.81 28.00 103.00 Z"/>
</g>
<g fill="#716463" fill-opacity="1.00" stroke="None">
<path d="
M 49.00 91.00 
C 48.99 91.14 49.91 91.65 50.00 92.00
C 50.26 91.01 51.67 88.96 52.00 88.00
C 52.24 86.90 53.24 85.08 53.00 84.00
C 53.00 84.00 52.22 83.75 52.00 84.00
C 50.56 85.63 49.59 88.97 49.00 91.00 Z"/>
</g>
<g fill="#8E7067" fill-opacity="1.00" stroke="None">
<path d="
M 138.00 94.00 
C 138.11 93.65 139.01 93.15 139.00 93.00
C 138.87 90.63 136.28 88.55 135.00 87.00
C 134.20 86.30 132.93 85.64 132.00 85.00
C 134.19 86.91 137.52 91.41 138.00 94.00 Z"/>
</g>
<g fill="#AED581" fill-opacity="1.00" stroke="None">
<path d="
M 56.00 87.00 
C 49.16 88.67 56.70 95.31 56.00 87.00 Z"/>
</g>
<g fill="#A28477" fill-opacity="1.00" stroke="None">
<path d="
M 62.00 92.00 
C 62.06 91.84 63.00 92.00 63.00 92.00
C 63.35 91.97 63.89 91.35 64.00 91.00
C 63.98 90.43 62.26 87.67 62.00 87.00
C 62.17 88.50 61.51 90.58 62.00 92.00 Z"/>
</g>
<g fill="#81C784" fill-opacity="1.00" stroke="None">
<path d="
M 50.00 92.00 
C 50.12 92.47 50.06 93.51 50.00 94.00
C 50.56 92.17 51.50 90.31 52.00 88.00
C 51.67 88.96 50.26 91.01 50.00 92.00 Z"/>
</g>
<g fill="#C5B8B0" fill-opacity="1.00" stroke="None">
<path d="
M 60.00 98.00 
C 62.45 96.17 62.25 94.77 63.00 92.00
C 63.00 92.00 62.06 91.84 62.00 92.00
C 61.27 93.95 60.73 96.07 60.00 98.00 Z"/>
</g>
<g fill="#33322F" fill-opacity="1.00" stroke="None">
<path d="
M 138.00 94.00 
C 137.67 95.09 138.00 96.86 138.00 98.00
C 138.00 100.96 137.75 104.05 138.00 107.00
C 138.13 108.54 138.67 108.98 139.00 110.00
C 138.45 104.82 140.58 97.92 139.00 93.00
C 139.01 93.15 138.11 93.65 138.00 94.00 Z"/>
</g>
<g fill="#EED5C4" fill-opacity="1.00" stroke="None">
<path d="
M 79.00 132.00 
C 78.83 132.43 79.00 133.00 79.00 133.00
C 81.66 131.89 84.44 128.23 86.00 126.00
C 90.84 119.50 95.06 111.39 98.00 104.00
C 98.12 101.03 100.87 98.95 101.00 96.00
C 91.85 106.15 90.99 123.61 79.00 132.00 Z"/>
</g>
<g fill="#1F171A" fill-opacity="1.00" stroke="None">
<path d="
M 104.00 122.00 
C 101.08 125.28 98.60 126.67 95.00 129.00
C 93.84 129.75 92.35 131.81 91.00 132.00
C 87.02 132.57 85.75 128.91 87.00 126.00
C 87.00 126.00 86.16 125.77 86.00 126.00
C 84.44 128.23 81.66 131.89 79.00 133.00
C 78.72 134.77 77.77 132.56 77.00 133.00
C 76.69 133.60 76.35 134.47 76.00 135.00
C 75.06 136.43 74.79 136.81 73.00 137.00
C 76.55 137.70 81.28 134.43 84.00 131.00
C 92.26 132.84 102.29 131.00 107.75 120.75 C 113.22 110.51 125.52 113.75 136.00 116.00
C 136.86 115.98 138.18 116.25 139.00 116.00
C 139.35 115.89 139.97 115.35 140.00 115.00
C 140.00 115.00 140.21 114.39 140.00 114.00
C 139.68 113.65 137.47 111.86 137.00 112.00
C 136.46 113.80 136.92 113.48 135.00 114.00
C 128.09 115.18 122.57 111.05 116.00 111.00
C 117.90 108.22 119.64 103.81 124.00 105.00
C 119.84 102.51 127.08 100.09 128.00 97.00
C 118.34 102.97 111.40 113.68 104.00 122.00 Z"/>
</g>
<g fill="#E0DBD5" fill-opacity="1.00" stroke="None">
<path d="
M 135.00 114.00 
C 136.92 113.48 136.46 113.80 137.00 112.00
C 137.33 110.89 137.90 107.70 138.00 107.00
C 137.75 104.05 138.00 100.96 138.00 98.00
C 137.34 102.84 135.15 108.63 135.00 114.00 Z"/>
</g>
<g fill="#824E4D" fill-opacity="1.00" stroke="None">
<path d="
M 50.00 103.00 
C 50.00 103.00 49.76 103.81 50.00 104.00
C 51.59 105.23 59.21 105.56 59.00 105.00
C 59.53 102.94 62.53 100.87 59.00 100.00
C 57.66 104.69 54.09 104.12 50.00 103.00 Z"/>
</g>
<g fill="#9F525F" fill-opacity="1.00" stroke="None">
<path d="
M 65.00 103.00 
C 65.00 103.00 65.25 103.76 65.00 104.00
C 66.71 103.97 70.09 104.14 71.00 106.00
C 70.79 105.29 69.60 103.42 69.00 103.00
C 67.86 102.20 66.37 101.42 65.00 103.00 Z"/>
</g>
<g fill="#818282" fill-opacity="1.00" stroke="None">
<path d="
M 30.00 109.00 
C 30.13 109.22 31.00 109.00 31.00 109.00
C 30.81 107.07 30.04 104.34 29.00 103.00
C 29.00 103.00 28.00 103.04 28.00 103.00
C 28.14 104.92 29.01 107.35 30.00 109.00 Z"/>
</g>
<g fill="#66BB6A" fill-opacity="1.00" stroke="None">
<path d="
M 60.00 111.00 
C 59.85 111.45 60.13 112.54 60.00 113.00
C 60.55 111.88 62.47 110.76 62.00 109.00
C 63.10 109.51 63.32 113.72 65.00 111.00
C 63.68 110.70 64.13 108.99 64.00 108.00
C 63.94 107.58 63.51 104.67 65.00 104.00
C 63.08 105.84 60.81 108.55 60.00 111.00 Z"/>
</g>
<g fill="#43A047" fill-opacity="1.00" stroke="None">
<path d="
M 64.00 108.00 
C 63.23 104.77 68.35 111.77 65.00 111.00
C 63.32 113.72 63.10 109.51 62.00 109.00
C 62.47 110.76 60.55 111.88 60.00 113.00
C 59.63 114.30 58.94 116.88 58.00 118.00
C 57.35 125.58 65.57 126.93 67.23 121.23 C 68.89 115.53 72.76 112.02 71.00 106.00
C 70.09 104.14 66.71 103.97 65.00 104.00
C 63.51 104.67 63.94 107.58 64.00 108.00 Z"/>
</g>
<g fill="#FAE5EF" fill-opacity="1.00" stroke="None">
<path d="
M 64.00 108.00 
C 64.13 108.99 63.68 110.70 65.00 111.00
C 68.35 111.77 63.23 104.77 64.00 108.00 Z"/>
</g>
<g fill="#70706E" fill-opacity="1.00" stroke="None">
<path d="
M 137.00 112.00 
C 137.47 111.86 139.68 113.65 140.00 114.00
C 139.23 112.54 139.17 111.65 139.00 110.00
C 138.67 108.98 138.13 108.54 138.00 107.00
C 137.90 107.70 137.33 110.89 137.00 112.00 Z"/>
</g>
<g fill="#161416" fill-opacity="1.00" stroke="None">
<path d="
M 37.00 149.00 
C 37.11 148.79 38.00 149.00 38.00 149.00
C 38.40 142.30 39.20 133.18 37.00 127.00
C 35.62 124.91 30.29 116.75 31.00 114.00
C 31.60 111.65 37.89 113.00 41.00 113.00
C 47.09 113.00 52.22 112.05 58.00 111.00
C 58.67 113.61 56.66 115.45 57.00 118.00
C 57.00 118.00 57.79 118.25 58.00 118.00
C 58.94 116.88 59.63 114.30 60.00 113.00
C 60.13 112.54 59.85 111.45 60.00 111.00
C 60.00 111.00 58.13 110.03 58.00 110.00
C 50.03 108.11 40.66 115.40 33.00 111.00
C 31.94 110.39 31.83 109.79 31.00 109.00
C 31.00 109.00 30.13 109.22 30.00 109.00
C 26.41 113.26 33.16 122.84 35.22 127.78 C 37.28 132.71 35.14 144.01 37.00 149.00 Z"/>
</g>
<g fill="#243146" fill-opacity="1.00" stroke="None">
<path d="
M 41.00 113.00 
C 40.77 113.05 40.33 113.82 40.00 114.00
C 38.34 114.92 36.28 115.34 34.00 115.00
C 36.04 120.35 40.59 124.86 40.00 131.00
C 40.12 133.32 40.00 135.68 40.00 138.00
C 39.75 137.00 41.80 139.56 42.00 142.00
C 42.43 147.15 41.33 151.37 40.00 156.00
C 43.65 157.01 47.05 158.88 51.00 159.00
C 53.32 159.42 56.08 160.48 58.00 161.00
C 68.08 163.73 79.27 162.65 90.00 162.00 C 100.73 161.35 110.67 168.27 121.00 165.00
C 112.25 166.24 104.76 159.19 96.00 160.00
C 105.83 159.39 117.33 162.47 127.00 160.00
C 129.76 153.22 129.61 143.47 132.00 136.00
C 134.05 129.62 136.36 123.09 136.00 116.00
C 125.52 113.75 113.22 110.51 107.75 120.75 C 102.29 131.00 92.26 132.84 84.00 131.00
C 81.28 134.43 76.55 137.70 73.00 137.00
C 64.72 135.36 66.67 127.84 71.00 123.00
C 71.50 122.44 71.63 121.60 72.00 121.00
C 70.26 122.36 68.04 125.34 64.01 125.99 C 59.97 126.64 55.95 122.43 57.00 118.00
C 56.66 115.45 58.67 113.61 58.00 111.00
C 52.22 112.05 47.09 113.00 41.00 113.00 Z"/>
</g>
<g fill="#73787F" fill-opacity="1.00" stroke="None">
<path d="
M 31.00 114.00 
C 33.95 113.68 37.06 114.42 40.00 114.00
C 40.33 113.82 40.77 113.05 41.00 113.00
C 37.89 113.00 31.60 111.65 31.00 114.00 Z"/>
</g>
<g fill="#485365" fill-opacity="1.00" stroke="None">
<path d="
M 37.00 127.00 
C 37.82 128.24 39.66 129.54 40.00 131.00
C 40.59 124.86 36.04 120.35 34.00 115.00
C 36.28 115.34 38.34 114.92 40.00 114.00
C 37.06 114.42 33.95 113.68 31.00 114.00
C 30.29 116.75 35.62 124.91 37.00 127.00 Z"/>
</g>
<g fill="#633536" fill-opacity="1.00" stroke="None">
<path d="
M 74.00 118.00 
C 74.50 117.57 75.36 117.14 76.00 117.00
C 85.48 114.99 78.74 129.60 77.00 133.00
C 77.77 132.56 78.72 134.77 79.00 133.00
C 79.00 133.00 78.83 132.43 79.00 132.00
C 79.74 130.12 81.12 128.56 82.00 127.00
C 83.68 122.48 82.61 118.32 79.00 115.00
C 78.60 115.81 74.46 115.40 75.00 115.00
C 74.53 115.97 74.43 116.83 74.00 118.00 Z"/>
</g>
<g fill="#4C4C4C" fill-opacity="1.00" stroke="None">
<path d="
M 139.00 116.00 
C 138.82 116.42 139.06 117.51 139.00 118.00
C 139.34 118.23 140.00 118.00 140.00 118.00
C 140.31 116.63 141.63 116.60 140.00 115.00
C 139.97 115.35 139.35 115.89 139.00 116.00 Z"/>
</g>
<g fill="#BDC0C3" fill-opacity="1.00" stroke="None">
<path d="
M 132.00 136.00 
C 134.57 130.79 138.23 124.10 139.00 118.00
C 139.06 117.51 138.82 116.42 139.00 116.00
C 138.18 116.25 136.86 115.98 136.00 116.00
C 136.36 123.09 134.05 129.62 132.00 136.00 Z"/>
</g>
<g fill="#9CCC65" fill-opacity="1.00" stroke="None">
<path d="
M 74.00 118.00 
C 73.36 118.55 72.49 120.20 72.00 121.00
C 71.63 121.60 71.50 122.44 71.00 123.00
C 70.55 121.59 74.69 124.07 75.00 124.00
C 78.59 121.63 74.59 119.51 76.00 117.00
C 75.36 117.14 74.50 117.57 74.00 118.00 Z"/>
</g>
<g fill="#689F38" fill-opacity="1.00" stroke="None">
<path d="
M 71.00 123.00 
C 65.70 127.15 69.12 141.19 76.00 135.00
C 76.35 134.47 76.69 133.60 77.00 133.00
C 78.74 129.60 85.48 114.99 76.00 117.00
C 74.59 119.51 78.59 121.63 75.00 124.00
C 74.69 124.07 70.55 121.59 71.00 123.00 Z"/>
</g>
<g fill="#783741" fill-opacity="1.00" stroke="None">
<path d="
M 93.00 119.00 
C 94.00 118.95 95.00 119.04 96.00 119.00
C 97.24 124.35 94.11 128.26 91.00 132.00
C 92.35 131.81 93.84 129.75 95.00 129.00
C 97.61 125.84 100.17 117.11 93.00 118.00
C 93.00 118.00 93.20 118.90 93.00 119.00 Z"/>
</g>
<g fill="#11141A" fill-opacity="1.00" stroke="None">
<path d="
M 132.00 136.00 
C 129.61 143.47 129.76 153.22 127.00 160.00
C 125.67 163.28 124.38 163.93 121.00 165.00
C 110.67 168.27 100.73 161.35 90.00 162.00 C 79.27 162.65 68.08 163.73 58.00 161.00
C 55.59 160.66 53.25 160.36 51.00 160.00
C 46.60 159.30 42.96 159.29 39.00 157.00
C 38.57 156.75 37.29 156.29 37.00 156.00
C 36.44 171.12 33.80 184.11 32.00 199.00
C 32.16 200.04 32.85 200.41 33.00 201.00
C 33.00 199.68 32.91 198.32 33.00 197.00
C 33.24 193.66 34.17 190.24 35.00 187.00
C 35.75 184.05 36.70 180.44 38.00 178.00
C 39.57 179.86 38.71 184.10 42.00 184.00
C 38.88 178.12 38.00 171.53 37.00 165.00
C 36.54 163.08 36.73 160.23 38.00 159.00
C 39.34 157.70 39.75 159.55 41.00 160.00
C 54.15 164.69 68.96 164.97 83.02 164.02 C 97.08 163.08 113.42 169.94 127.00 165.00
C 127.00 166.00 127.00 167.00 127.00 168.00
C 128.52 173.51 126.18 180.32 127.00 186.00
C 127.05 186.35 128.00 186.84 128.00 187.00
C 130.02 175.08 127.29 160.71 130.00 149.00 C 132.72 137.29 137.39 129.45 140.00 118.00
C 140.00 118.00 139.34 118.23 139.00 118.00
C 138.23 124.10 134.57 130.79 132.00 136.00 Z"/>
</g>
<g fill="#8BC34A" fill-opacity="1.00" stroke="None">
<path d="
M 90.00 123.00 
C 89.45 124.55 88.96 126.24 89.00 128.00
C 91.37 127.10 91.34 123.67 94.00 123.00
C 94.57 120.81 91.02 121.17 93.00 119.00
C 90.86 120.10 91.10 121.41 90.00 123.00 Z"/>
</g>
<g fill="#2E7D32" fill-opacity="1.00" stroke="None">
<path d="
M 90.00 123.00 
C 89.35 123.93 88.27 125.51 87.00 126.00
C 85.75 128.91 87.02 132.57 91.00 132.00
C 94.11 128.26 97.24 124.35 96.00 119.00
C 95.00 119.04 94.00 118.95 93.00 119.00
C 91.02 121.17 94.57 120.81 94.00 123.00
C 91.34 123.67 91.37 127.10 89.00 128.00
C 88.96 126.24 89.45 124.55 90.00 123.00 Z"/>
</g>
<g fill="#62354B" fill-opacity="1.00" stroke="None">
<path d="
M 73.00 137.00 
C 74.79 136.81 75.06 136.43 76.00 135.00
C 69.12 141.19 65.70 127.15 71.00 123.00
C 66.67 127.84 64.72 135.36 73.00 137.00 Z"/>
</g>
<g fill="#BFC3C6" fill-opacity="1.00" stroke="None">
<path d="
M 38.00 149.00 
C 37.93 150.24 38.97 157.08 39.00 157.00
C 42.96 159.29 46.60 159.30 51.00 160.00
C 50.76 159.80 51.00 159.00 51.00 159.00
C 47.05 158.88 43.65 157.01 40.00 156.00
C 41.33 151.37 42.43 147.15 42.00 142.00
C 41.94 144.50 40.64 149.17 40.00 152.00
C 39.10 148.51 40.61 142.55 40.00 138.00
C 40.00 135.68 40.12 133.32 40.00 131.00
C 39.66 129.54 37.82 128.24 37.00 127.00
C 39.20 133.18 38.40 142.30 38.00 149.00 Z"/>
</g>
<g fill="#5A6471" fill-opacity="1.00" stroke="None">
<path d="
M 40.00 138.00 
C 40.61 142.55 39.10 148.51 40.00 152.00
C 40.64 149.17 41.94 144.50 42.00 142.00
C 41.80 139.56 39.75 137.00 40.00 138.00 Z"/>
</g>
<g fill="#656668" fill-opacity="1.00" stroke="None">
<path d="
M 37.00 156.00 
C 37.29 156.29 38.57 156.75 39.00 157.00
C 38.97 157.08 37.93 150.24 38.00 149.00
C 38.00 149.00 37.11 148.79 37.00 149.00
C 35.59 151.68 37.07 154.01 37.00 156.00 Z"/>
</g>
<g fill="#A8AFB5" fill-opacity="1.00" stroke="None">
<path d="
M 38.00 159.00 
C 37.23 160.47 38.34 163.35 38.00 165.00
C 40.72 168.07 40.58 173.15 41.00 177.00
C 43.63 172.06 39.63 165.79 41.00 160.00
C 39.75 159.55 39.34 157.70 38.00 159.00 Z"/>
</g>
<g fill="#61626B" fill-opacity="1.00" stroke="None">
<path d="
M 37.00 165.00 
C 37.00 164.97 38.00 165.00 38.00 165.00
C 38.34 163.35 37.23 160.47 38.00 159.00
C 36.73 160.23 36.54 163.08 37.00 165.00 Z"/>
</g>
<g fill="#797E86" fill-opacity="1.00" stroke="None">
<path d="
M 51.00 160.00 
C 53.25 160.36 55.59 160.66 58.00 161.00
C 56.08 160.48 53.32 159.42 51.00 159.00
C 51.00 159.00 50.76 159.80 51.00 160.00 Z"/>
</g>
<g fill="#3F4B60" fill-opacity="1.00" stroke="None">
<path d="
M 121.00 165.00 
C 124.38 163.93 125.67 163.28 127.00 160.00
C 117.33 162.47 105.83 159.39 96.00 160.00
C 104.76 159.19 112.25 166.24 121.00 165.00 Z"/>
</g>
<g fill="#27344A" fill-opacity="1.00" stroke="None">
<path d="
M 38.00 165.00 
C 38.00 165.00 37.00 164.97 37.00 165.00
C 38.00 171.53 38.88 178.12 42.00 184.00
C 38.71 184.10 39.57 179.86 38.00 178.00
C 36.70 180.44 35.75 184.05 35.00 187.00
C 34.65 189.57 34.29 195.99 34.00 199.00
C 34.57 203.62 34.42 209.36 34.00 214.00
C 35.10 215.01 35.14 216.64 36.00 218.00
C 34.72 218.27 33.28 217.23 33.00 216.00
C 30.96 217.67 31.49 218.56 34.00 221.00
C 35.79 222.05 37.96 224.10 40.00 225.00
C 42.94 224.08 44.10 227.90 47.00 227.00
C 47.57 229.86 46.08 229.71 44.00 230.00
C 44.25 230.28 44.00 231.00 44.00 231.00
C 49.91 233.43 55.90 233.47 62.00 235.00
C 61.13 233.81 60.87 232.49 61.00 231.00
C 62.56 231.19 64.47 232.50 65.00 230.00
C 62.79 230.09 58.13 229.47 58.00 227.00
C 61.31 226.58 63.52 229.92 67.00 229.00
C 74.21 227.49 71.78 228.95 78.00 230.00
C 78.91 230.15 80.08 230.02 81.00 230.00
C 81.49 229.58 80.60 227.54 81.00 227.00
C 84.00 227.60 92.13 229.03 90.00 224.00
C 92.40 225.65 95.40 226.57 99.00 226.00
C 99.42 220.82 109.25 222.72 108.00 228.00
C 109.82 223.57 114.37 225.76 117.97 220.97 C 121.57 216.18 125.53 214.64 126.00 209.00
C 120.82 195.81 127.56 180.17 127.00 168.00
C 127.00 167.00 127.00 166.00 127.00 165.00
C 113.42 169.94 97.08 163.08 83.02 164.02 C 68.96 164.97 54.15 164.69 41.00 160.00
C 39.63 165.79 43.63 172.06 41.00 177.00
C 40.58 173.15 40.72 168.07 38.00 165.00
M 47.00 224.00 
C 45.01 223.27 41.86 223.46 41.00 221.00
C 43.23 220.89 46.07 221.79 47.00 224.00
M 51.00 228.00 
C 51.16 233.05 46.57 228.33 51.00 228.00 Z"/>
</g>
<g fill="#CED0D3" fill-opacity="1.00" stroke="None">
<path d="
M 126.00 209.00 
C 126.21 209.55 126.74 210.15 127.00 211.00
C 127.03 208.01 127.31 203.18 127.00 200.00
C 126.40 197.74 126.58 190.29 127.00 186.00
C 126.18 180.32 128.52 173.51 127.00 168.00
C 127.56 180.17 120.82 195.81 126.00 209.00 Z"/>
</g>
<g fill="#5B5B5B" fill-opacity="1.00" stroke="None">
<path d="
M 127.00 200.00 
C 126.56 195.50 127.30 191.17 128.00 187.00
C 128.00 186.84 127.05 186.35 127.00 186.00
C 126.58 190.29 126.40 197.74 127.00 200.00 Z"/>
</g>
<g fill="#9CA3AA" fill-opacity="1.00" stroke="None">
<path d="
M 33.00 197.00 
C 33.06 197.31 33.90 198.20 34.00 199.00
C 34.29 195.99 34.65 189.57 35.00 187.00
C 34.17 190.24 33.24 193.66 33.00 197.00 Z"/>
</g>
<g fill="#F1F3F4" fill-opacity="1.00" stroke="None">
<path d="
M 33.00 201.00 
C 33.00 205.33 33.00 209.67 33.00 214.00
C 33.34 213.77 34.00 214.00 34.00 214.00
C 34.42 209.36 34.57 203.62 34.00 199.00
C 33.90 198.20 33.06 197.31 33.00 197.00
C 32.91 198.32 33.00 199.68 33.00 201.00 Z"/>
</g>
<g fill="#495161" fill-opacity="1.00" stroke="None">
<path d="
M 32.00 221.00 
C 32.50 221.00 33.63 220.78 34.00 221.00
C 31.49 218.56 30.96 217.67 33.00 216.00
C 32.80 215.60 33.00 214.50 33.00 214.00
C 33.00 209.67 33.00 205.33 33.00 201.00
C 32.85 200.41 32.16 200.04 32.00 199.00
C 30.21 205.43 28.68 212.91 28.00 220.00
C 29.60 219.87 30.46 220.99 32.00 221.00 Z"/>
</g>
<g fill="#465265" fill-opacity="1.00" stroke="None">
<path d="
M 81.00 230.00 
C 83.00 229.95 85.00 230.04 87.00 230.00
C 85.14 231.81 77.63 232.00 78.00 230.00
C 71.78 228.95 74.21 227.49 67.00 229.00
C 66.50 229.10 66.03 229.96 65.00 230.00
C 64.47 232.50 62.56 231.19 61.00 231.00
C 60.87 232.49 61.13 233.81 62.00 235.00
C 62.69 235.17 62.78 235.89 64.00 236.00
C 66.31 236.21 68.68 235.85 71.00 236.00
C 70.14 237.84 67.07 241.56 72.00 241.00
C 72.00 241.00 71.93 240.49 72.00 240.00
C 72.20 238.57 73.58 237.46 72.00 236.00
C 79.57 233.85 86.95 239.88 92.00 235.00
C 93.25 237.71 95.27 238.92 96.00 242.00
C 96.95 243.68 97.83 243.69 98.00 246.00
L 99.00 246.00
C 98.82 245.11 99.98 244.80 100.00 244.00
C 100.09 239.39 99.99 237.03 104.00 235.00
C 104.23 241.51 106.64 241.23 106.00 234.00
C 108.54 234.00 110.26 236.60 113.00 236.00
C 114.73 236.39 113.75 236.31 115.00 236.00
C 119.33 234.94 123.91 232.14 129.00 231.00
C 130.51 225.87 128.51 216.02 127.00 211.00
C 126.74 210.15 126.21 209.55 126.00 209.00
C 125.53 214.64 121.57 216.18 117.97 220.97 C 114.37 225.76 109.82 223.57 108.00 228.00
C 109.25 222.72 99.42 220.82 99.00 226.00
C 95.40 226.57 92.40 225.65 90.00 224.00
C 92.13 229.03 84.00 227.60 81.00 227.00
C 80.60 227.54 81.49 229.58 81.00 230.00
M 127.00 225.00 
C 126.34 230.97 122.86 226.27 127.00 225.00
M 94.00 232.00 
C 93.07 236.94 87.44 231.23 94.00 232.00
M 75.00 235.00 
C 69.95 235.16 74.67 230.57 75.00 235.00
M 85.00 234.00 
C 82.87 235.23 78.70 235.88 77.00 234.00
C 78.64 232.50 83.43 232.28 85.00 234.00 Z"/>
</g>
<g fill="#9FA9B4" fill-opacity="1.00" stroke="None">
<path d="
M 33.00 216.00 
C 33.28 217.23 34.72 218.27 36.00 218.00
C 35.14 216.64 35.10 215.01 34.00 214.00
C 34.00 214.00 33.34 213.77 33.00 214.00
C 33.00 214.50 32.80 215.60 33.00 216.00 Z"/>
</g>
<g fill="#8B939E" fill-opacity="1.00" stroke="None">
<path d="
M 40.00 225.00 
C 37.96 224.10 35.79 222.05 34.00 221.00
C 33.63 220.78 32.50 221.00 32.00 221.00
C 32.00 222.00 32.00 223.00 32.00 224.00
C 34.62 224.83 37.32 224.43 40.00 225.00 Z"/>
</g>
<g fill="#828D9D" fill-opacity="1.00" stroke="None">
<path d="
M 47.00 224.00 
C 46.07 221.79 43.23 220.89 41.00 221.00
C 41.86 223.46 45.01 223.27 47.00 224.00 Z"/>
</g>
<g fill="#818D9D" fill-opacity="1.00" stroke="None">
<path d="
M 127.00 225.00 
C 122.86 226.27 126.34 230.97 127.00 225.00 Z"/>
</g>
<g fill="#5C636A" fill-opacity="1.00" stroke="None">
<path d="
M 44.00 231.00 
C 44.00 231.00 44.25 230.28 44.00 230.00
C 42.66 228.38 40.11 227.40 38.00 227.00
C 39.13 229.09 41.85 230.12 44.00 231.00 Z"/>
</g>
<g fill="#677486" fill-opacity="1.00" stroke="None">
<path d="
M 65.00 230.00 
C 66.03 229.96 66.50 229.10 67.00 229.00
C 63.52 229.92 61.31 226.58 58.00 227.00
C 58.13 229.47 62.79 230.09 65.00 230.00 Z"/>
</g>
<g fill="#7B8897" fill-opacity="1.00" stroke="None">
<path d="
M 51.00 228.00 
C 46.57 228.33 51.16 233.05 51.00 228.00 Z"/>
</g>
<g fill="#717F92" fill-opacity="1.00" stroke="None">
<path d="
M 81.00 230.00 
C 80.08 230.02 78.91 230.15 78.00 230.00
C 77.63 232.00 85.14 231.81 87.00 230.00
C 85.00 230.04 83.00 229.95 81.00 230.00 Z"/>
</g>
<g fill="#9EA4AE" fill-opacity="1.00" stroke="None">
<path d="
M 115.00 236.00 
C 116.45 236.95 114.26 238.59 114.00 240.00
C 112.04 239.14 114.68 237.34 113.00 236.00
C 110.26 236.60 108.54 234.00 106.00 234.00
C 106.64 241.23 104.23 241.51 104.00 235.00
C 99.99 237.03 100.09 239.39 100.00 244.00
C 102.96 241.00 103.66 241.34 107.00 244.00
C 106.59 236.91 115.23 243.58 117.00 238.00
C 118.32 240.57 120.02 238.89 122.00 240.00
C 119.47 233.25 127.80 235.07 129.00 231.00
C 123.91 232.14 119.33 234.94 115.00 236.00 Z"/>
</g>
<g fill="#97A1B3" fill-opacity="1.00" stroke="None">
<path d="
M 94.00 232.00 
C 87.44 231.23 93.07 236.94 94.00 232.00 Z"/>
</g>
<g fill="#738193" fill-opacity="1.00" stroke="None">
<path d="
M 75.00 235.00 
C 74.67 230.57 69.95 235.16 75.00 235.00 Z"/>
</g>
<g fill="#9BA4B2" fill-opacity="1.00" stroke="None">
<path d="
M 85.00 234.00 
C 83.43 232.28 78.64 232.50 77.00 234.00
C 78.70 235.88 82.87 235.23 85.00 234.00 Z"/>
</g>
<g fill="#A0A5AE" fill-opacity="1.00" stroke="None">
<path d="
M 72.00 240.00 
C 79.15 238.14 81.59 249.30 89.00 242.00
C 89.54 243.31 90.41 244.44 90.00 246.00
L 92.00 246.00
C 90.26 243.21 93.38 240.83 96.00 242.00
C 95.27 238.92 93.25 237.71 92.00 235.00
C 86.95 239.88 79.57 233.85 72.00 236.00
C 73.58 237.46 72.20 238.57 72.00 240.00
M 82.00 237.00 
C 82.16 242.05 77.57 237.33 82.00 237.00
M 85.00 239.00 
C 87.21 244.35 82.09 242.55 85.00 239.00 Z"/>
</g>
<g fill="#8F96A0" fill-opacity="1.00" stroke="None">
<path d="
M 72.00 241.00 
C 67.07 241.56 70.14 237.84 71.00 236.00
C 68.68 235.85 66.31 236.21 64.00 236.00
C 64.00 237.33 64.00 238.67 64.00 240.00
C 66.30 236.58 66.10 240.58 66.00 243.00
C 68.02 242.93 70.74 242.43 72.00 241.00 Z"/>
</g>
<g fill="#767C89" fill-opacity="1.00" stroke="None">
<path d="
M 115.00 236.00 
C 113.75 236.31 114.73 236.39 113.00 236.00
C 114.68 237.34 112.04 239.14 114.00 240.00
C 114.26 238.59 116.45 236.95 115.00 236.00 Z"/>
</g>
<g fill="#5B626E" fill-opacity="1.00" stroke="None">
<path d="
M 82.00 237.00 
C 77.57 237.33 82.16 242.05 82.00 237.00 Z"/>
</g>
<g fill="#E2E6E9" fill-opacity="1.00" stroke="None">
<path d="
M 85.00 239.00 
C 82.09 242.55 87.21 244.35 85.00 239.00 Z"/>
</g>
<g fill="#EBEDEF" fill-opacity="1.00" stroke="None">
<path d="
M 92.00 246.00 
L 98.00 246.00
C 97.83 243.69 96.95 243.68 96.00 242.00
C 93.38 240.83 90.26 243.21 92.00 246.00 Z"/>
</g>
<!-- Define style and import Caveat font -->
  <defs>
    <style type="text/css"><![CDATA[
      @import url('https://fonts.googleapis.com/css2?family=Caveat&display=swap');
      .fancy-text {
        font-family: 'Caveat', cursive;
        fill: green;
        font-size: 24px;
      }
    ]]></style>
  </defs>
<text xml:space="preserve" font-family="Lato" font-size="29" font-style="normal" font-weight="400" style="stroke: none; stroke-width: 1; stroke-dasharray: none; stroke-linecap: butt; stroke-dashoffset: 0; stroke-linejoin: miter; stroke-miterlimit: 4; fill: rgb(30,207,48); fill-rule: nonzero; opacity: 1; white-space: pre;" ><tspan x="132" y="237" class="fancy-text">I/G</tspan></text>
</svg>
