<?xml version="1.0" standalone="no"?>
<!DOCTYPE svg PUBLIC "-//W3C//DTD SVG 20010904//EN"
 "http://www.w3.org/TR/2001/REC-SVG-20010904/DTD/svg10.dtd">
<svg version="1.0" xmlns="http://www.w3.org/2000/svg"
 width="300.000000pt" height="300.000000pt" viewBox="0 0 300.000000 300.000000"
 preserveAspectRatio="xMidYMid meet">
<metadata>
Created by potrace 1.10, written by Peter Selinger 2001-2011
</metadata>
<g transform="translate(0.000000,300.000000) scale(0.100000,-0.100000)"
fill="#000000" stroke="none">
<path d="M1372 2526 c-181 -46 -337 -194 -392 -375 -25 -80 -26 -209 -3 -297
14 -51 15 -69 6 -83 -10 -16 -9 -20 13 -25 13 -4 24 -12 24 -19 1 -10 30 48
30 59 0 2 -8 4 -19 4 -21 0 -34 29 -50 108 -52 258 101 517 357 603 91 31 240
31 326 0 117 -42 166 -82 150 -125 -6 -15 -3 -15 21 -4 26 12 30 10 67 -32 77
-86 128 -223 128 -340 -2 -294 -240 -530 -536 -530 -39 0 -93 7 -120 15 -64
19 -88 18 -44 -3 27 -13 65 -17 170 -17 124 0 140 3 197 27 158 67 269 186
318 341 59 184 15 385 -116 534 -22 26 -29 42 -25 59 6 22 4 23 -17 13 -20 -9
-32 -6 -75 21 -83 51 -156 72 -262 76 -58 2 -116 -2 -148 -10z"/>
<path d="M1690 2445 c-9 -11 -22 -14 -38 -10 -35 9 -70 -18 -78 -60 -5 -31 2
-79 22 -141 5 -15 2 -14 -15 5 -12 13 -24 41 -27 62 -4 22 -11 42 -17 46 -10
6 -6 -21 10 -64 3 -10 3 -15 -2 -11 -4 4 -14 29 -21 55 -10 37 -13 41 -13 20
-1 -39 26 -100 40 -91 7 4 9 3 5 -4 -3 -6 8 -31 25 -56 l32 -45 -162 -157
c-89 -86 -199 -185 -244 -219 -81 -62 -226 -205 -208 -205 10 0 53 41 108 103
18 19 67 61 110 93 43 31 134 112 203 179 122 118 180 165 180 146 0 -6 -33
-52 -74 -103 -75 -93 -97 -138 -30 -59 l37 43 66 -5 c85 -7 132 -17 125 -28
-3 -5 -31 -9 -62 -9 -75 -1 -135 -13 -167 -34 -39 -25 -24 -31 17 -7 32 20 38
20 99 7 35 -8 75 -19 89 -24 31 -13 26 -14 -120 -16 -104 -1 -106 -2 -148 -34
-29 -23 -42 -41 -42 -58 0 -29 33 -45 70 -33 29 8 132 20 113 12 -18 -7 -16
-24 4 -38 14 -10 5 -13 -53 -20 -40 -4 -97 -19 -136 -36 -37 -16 -84 -29 -106
-29 -45 0 -92 -32 -117 -81 -17 -33 -18 -39 -6 -39 5 0 11 10 15 23 10 43 59
77 122 87 33 4 80 18 106 29 26 12 80 28 120 35 118 23 143 31 143 46 0 26
-91 42 -172 30 -104 -16 -118 -2 -55 56 l37 35 108 -5 c64 -3 107 -1 107 5 0
5 9 9 19 9 11 0 23 5 26 10 3 6 15 10 26 10 41 0 17 20 -26 21 -25 1 -49 3
-55 4 -5 1 -21 3 -35 4 -45 2 -26 21 20 21 31 0 55 7 75 22 39 29 38 35 -7 34
-21 0 -73 1 -116 2 l-79 2 36 49 c20 27 36 60 36 75 0 30 7 32 38 10 24 -17
39 -14 27 5 -3 6 -12 8 -18 4 -8 -5 -8 -2 0 9 7 8 10 18 6 21 -3 4 17 7 46 7
87 0 176 -68 102 -78 -35 -5 -66 5 -101 34 -17 15 -33 24 -36 21 -3 -2 14 -19
38 -36 77 -57 152 -37 141 37 -8 54 -20 72 -53 79 -25 5 -28 8 -19 24 11 21 2
117 -14 137 -5 6 -13 27 -16 45 -8 37 -39 48 -61 22z m51 -31 c8 -43 -6 -73
-63 -131 -29 -29 -49 -55 -47 -58 9 -8 119 112 119 130 0 9 4 14 9 11 13 -8
20 -98 10 -118 -12 -22 -74 -55 -113 -59 -30 -4 -30 -4 -34 55 -6 87 4 121 48
167 43 46 62 47 71 3z m-96 7 c3 -5 -5 -26 -16 -46 -13 -21 -23 -55 -23 -80
-1 -63 -20 -25 -20 41 -1 38 4 58 18 73 21 23 32 26 41 12z m175 -231 c11 -11
20 -29 20 -40 0 -20 0 -20 -37 0 -28 15 -54 20 -95 19 -32 -2 -61 1 -65 4 -3
4 5 7 18 7 13 1 38 7 54 15 44 20 82 18 105 -5z"/>
<path d="M1394 2319 c-3 -6 -2 -15 2 -19 12 -12 38 5 30 19 -9 14 -23 14 -32
0z"/>
<path d="M1237 2246 c-12 -27 -25 -38 -47 -42 -35 -7 -39 -20 -10 -29 22 -7
50 -53 50 -82 0 -11 7 -4 18 17 10 21 31 42 51 51 32 15 33 17 14 23 -28 9
-44 30 -52 67 l-6 31 -18 -36z"/>
<path d="M1925 1997 c-4 -10 -19 -24 -34 -32 -14 -8 -20 -14 -13 -15 7 0 21
-14 31 -31 18 -29 19 -30 26 -11 3 12 16 24 27 28 20 6 20 8 5 19 -9 6 -21 23
-26 36 -8 21 -10 22 -16 6z"/>
<path d="M1222 1420 c-18 -11 -40 -36 -48 -55 -18 -45 -20 -258 -1 -273 20
-16 149 -10 155 8 4 12 2 13 -9 3 -19 -19 -37 -16 -49 8 -15 28 2 69 41 98 52
39 31 42 -23 4 -67 -47 -70 -51 -63 -92 5 -25 3 -32 -7 -29 -10 4 -14 42 -16
158 l-3 153 40 -6 c35 -4 40 -2 44 19 5 30 -15 32 -61 4z"/>
<path d="M1870 1427 c-31 -15 -70 -73 -70 -102 0 -21 -4 -22 -44 -18 -39 5
-48 2 -81 -29 -34 -31 -39 -41 -43 -91 -4 -50 -2 -58 21 -81 31 -31 90 -35
120 -9 18 17 19 17 28 0 6 -11 22 -17 42 -17 27 1 29 2 15 11 -16 9 -18 28
-18 161 l0 150 40 -4 c36 -3 40 -1 40 19 0 26 -13 29 -50 10z m-82 -217 c3
-77 1 -87 -19 -102 -47 -39 -89 -6 -89 69 0 76 33 126 79 121 26 -3 26 -5 29
-88z"/>
<path d="M940 1381 c-41 -22 -80 -89 -80 -139 0 -50 36 -118 74 -142 22 -13
50 -20 85 -20 43 0 56 5 83 30 l33 31 -35 -21 c-67 -39 -136 -15 -166 56 -19
45 -18 154 1 181 31 44 115 36 155 -14 l20 -26 0 27 c0 51 -103 73 -170 37z"/>
<path d="M1876 1371 c-11 -18 6 -42 28 -39 29 4 29 42 -1 46 -11 2 -24 -1 -27
-7z"/>
<path d="M1261 1284 c-35 -29 -40 -54 -12 -54 13 0 20 9 24 30 5 21 14 31 32
36 14 3 29 3 33 0 3 -4 9 -48 12 -99 3 -51 9 -98 13 -104 5 -7 22 -13 40 -13
26 0 29 2 15 13 -12 9 -17 33 -20 93 -2 63 -7 87 -22 103 -27 30 -77 27 -115
-5z"/>
<path d="M1420 1231 c0 -80 11 -129 33 -143 17 -11 69 -9 87 2 11 8 8 9 -13 4
-46 -11 -57 8 -57 102 0 62 -4 87 -16 98 -28 28 -34 17 -34 -63z"/>
<path d="M1560 1207 c0 -113 6 -127 55 -127 25 1 27 2 13 11 -15 8 -18 25 -18
98 0 72 -3 91 -18 104 -10 10 -22 17 -25 17 -4 0 -7 -46 -7 -103z"/>
<path d="M1880 1207 c0 -110 6 -127 48 -127 21 0 22 1 8 16 -12 12 -16 37 -16
104 0 79 -2 91 -20 100 -19 10 -20 8 -20 -93z"/>
<path d="M1981 1279 c-35 -35 -39 -49 -13 -49 11 0 24 13 33 33 9 20 22 33 36
35 31 5 44 -33 42 -119 -1 -43 3 -74 11 -84 18 -22 67 -19 80 4 16 31 12 35
-10 10 -29 -35 -40 -11 -40 84 0 64 -3 80 -20 97 -31 31 -82 26 -119 -11z"/>
<path d="M2030 1225 c-77 -53 -80 -56 -80 -85 0 -58 68 -82 106 -37 l19 22
-23 -20 c-30 -25 -56 -11 -60 32 -2 24 4 36 30 58 18 15 37 34 41 41 10 18 9
17 -33 -11z"/>
<path d="M1430 1052 c-57 -28 -74 -71 -78 -193 -5 -122 4 -149 46 -149 28 0
52 16 52 34 0 5 -6 2 -13 -9 -27 -35 -37 -7 -37 98 0 118 3 117 64 -28 21 -49
40 -91 41 -93 2 -2 16 25 31 60 16 35 40 87 55 116 23 46 24 52 9 52 -11 0
-18 -8 -18 -22 0 -22 -47 -138 -56 -138 -2 0 -16 30 -30 66 -21 51 -24 69 -15
80 9 12 4 14 -35 14 l-46 0 0 46 0 47 40 -7 c38 -6 40 -5 40 19 0 30 -4 30
-50 7z"/>
<path d="M1181 992 c-7 -20 -15 -43 -18 -51 -3 -8 -1 -11 5 -7 8 4 42 -69 42
-91 0 -2 -16 -3 -35 -3 -38 0 -40 5 -25 46 6 15 9 29 6 31 -2 2 -21 -39 -41
-91 -20 -53 -45 -101 -54 -106 -13 -7 -10 -9 15 -10 27 0 31 3 27 23 -2 12 3
39 12 60 14 35 18 37 59 37 43 0 45 -1 61 -45 10 -24 15 -51 12 -60 -5 -12 2
-15 39 -15 44 0 44 0 30 23 -17 25 -106 256 -106 274 0 28 -18 19 -29 -15z"/>
<path d="M1643 920 c-22 -13 -36 -32 -44 -59 -32 -107 83 -198 170 -133 28 20
29 20 34 2 6 -24 84 -37 118 -19 31 16 39 28 39 60 0 29 -15 44 -82 83 -49 27
-57 43 -36 64 19 19 53 14 78 -13 29 -31 38 -32 33 -1 -8 42 -96 51 -131 13
-41 -43 -21 -81 67 -129 45 -25 40 -62 -8 -66 -42 -4 -81 28 -74 61 4 16 -1
12 -18 -13 -15 -21 -38 -38 -58 -44 -30 -9 -36 -7 -57 18 -47 54 -22 203 30
183 9 -4 19 -20 22 -37 5 -21 12 -30 25 -30 26 0 24 26 -6 55 -29 30 -59 32
-102 5z"/>
<path d="M1040 560 c0 -27 3 -32 11 -20 8 11 12 12 16 3 2 -7 9 -13 14 -13 6
0 6 7 0 18 -7 13 -6 23 1 30 9 9 9 12 1 12 -7 0 -15 -5 -19 -11 -4 -8 -9 -7
-15 2 -6 9 -9 2 -9 -21z"/>
<path d="M1120 560 c0 -25 4 -30 23 -29 16 1 18 2 5 6 -21 5 -24 23 -5 23 8 0
8 3 -2 9 -11 7 -10 10 5 14 16 4 16 5 -3 6 -19 1 -23 -4 -23 -29z"/>
<path d="M1195 560 c0 -16 5 -30 11 -30 6 0 11 13 10 30 -1 39 -21 39 -21 0z"/>
<path d="M1258 560 c2 -16 8 -30 12 -30 4 0 10 14 12 30 4 23 1 30 -12 30 -13
0 -16 -7 -12 -30z"/>
<path d="M1322 560 c0 -19 2 -29 5 -22 2 6 11 12 18 12 7 0 16 -6 18 -12 3 -7
5 3 5 22 0 19 -2 29 -5 23 -2 -7 -11 -13 -18 -13 -7 0 -16 6 -18 13 -3 6 -5
-4 -5 -23z"/>
<path d="M1400 579 c0 -7 8 -18 18 -26 16 -14 16 -14 0 -9 -10 3 -18 1 -18 -4
0 -6 9 -10 19 -10 15 0 19 7 19 30 -1 22 -6 30 -20 30 -10 0 -18 -5 -18 -11z"/>
<path d="M1478 560 c2 -16 8 -30 12 -30 4 0 10 14 12 30 4 23 1 30 -12 30 -13
0 -16 -7 -12 -30z"/>
<path d="M1540 575 c-10 -12 -10 -18 0 -30 7 -8 18 -15 25 -15 7 0 18 7 25 15
10 12 10 18 0 30 -7 8 -18 15 -25 15 -7 0 -18 -7 -25 -15z"/>
<path d="M1620 560 c0 -16 4 -30 9 -30 10 0 22 40 15 52 -11 18 -24 6 -24 -22z"/>
<path d="M1667 583 c-5 -7 -5 -13 0 -13 4 0 1 -5 -7 -10 -12 -7 -12 -12 -3
-21 17 -17 25 -6 21 28 -2 18 -6 24 -11 16z"/>
<path d="M1756 563 l-15 -30 29 1 c25 1 29 4 24 21 -11 36 -22 38 -38 8z"/>
<path d="M1831 559 c1 -19 3 -26 6 -16 5 18 6 18 24 1 18 -17 19 -16 18 17 -1
19 -3 26 -6 16 -5 -18 -6 -18 -24 -1 -18 17 -19 16 -18 -17z"/>
<path d="M1910 560 c0 -23 5 -30 19 -30 10 0 24 6 30 14 17 20 3 46 -25 46
-20 0 -24 -5 -24 -30z"/>
<path d="M1217 493 c-8 -8 -9 -53 -2 -53 14 0 46 40 40 49 -7 12 -28 15 -38 4z"/>
<path d="M1294 472 c-11 -28 -10 -29 18 -28 19 1 27 5 23 14 -3 8 -5 16 -5 18
0 3 -4 2 -10 -1 -6 -3 -7 1 -4 9 3 9 2 16 -3 16 -5 0 -13 -13 -19 -28z"/>
<path d="M1368 475 c-3 -14 -1 -28 3 -31 5 -3 9 0 9 7 0 8 4 8 15 -1 13 -11
15 -8 15 19 0 40 -35 45 -42 6z"/>
<path d="M1448 470 c2 -16 8 -30 12 -30 4 0 10 14 12 30 4 23 1 30 -12 30 -13
0 -16 -7 -12 -30z"/>
<path d="M1511 469 c1 -19 3 -26 6 -16 5 18 6 18 24 1 18 -17 19 -16 18 17 -1
19 -3 26 -6 16 -5 -18 -6 -18 -24 -1 -18 17 -19 16 -18 -17z"/>
<path d="M1592 473 c2 -22 9 -28 28 -30 14 -1 18 0 8 3 -21 6 -24 24 -5 24 8
0 8 3 -2 9 -11 7 -10 10 5 14 13 3 10 5 -9 6 -25 1 -28 -2 -25 -26z"/>
<path d="M1668 475 c-3 -14 -1 -28 3 -31 5 -3 9 0 9 7 0 8 4 8 15 -1 13 -11
15 -8 15 19 0 40 -35 45 -42 6z"/>
<path d="M1745 489 c-4 -6 1 -17 11 -25 18 -14 18 -14 0 -7 -13 4 -17 3 -12
-5 4 -7 13 -12 21 -12 23 0 28 20 9 36 -11 9 -13 13 -6 9 6 -3 12 -1 12 4 0
14 -27 14 -35 0z"/>
</g>
</svg>
