<?xml version="1.0" standalone="no"?>
<!DOCTYPE svg PUBLIC "-//W3C//DTD SVG 20010904//EN"
 "http://www.w3.org/TR/2001/REC-SVG-20010904/DTD/svg10.dtd">
<svg version="1.0" xmlns="http://www.w3.org/2000/svg"
 width="200.000000pt" height="200.000000pt" viewBox="0 0 200.000000 200.000000"
 preserveAspectRatio="xMidYMid meet">
<g transform="translate(-50.000000,300.000000) scale(0.100000,-0.100000)"
fill="#000000" stroke="none">
<path stroke="green" stroke-width="2" fill="#ff2400" d="M1372 2526 c-181 -46 -337 -194 -392 -375 -25 -80 -26 -209 -3 -297
14 -51 15 -69 6 -83 -10 -16 -9 -20 13 -25 13 -4 24 -12 24 -19 1 -10 30 48
30 59 0 2 -8 4 -19 4 -21 0 -34 29 -50 108 -52 258 101 517 357 603 91 31 240
31 326 0 117 -42 166 -82 150 -125 -6 -15 -3 -15 21 -4 26 12 30 10 67 -32 77
-86 128 -223 128 -340 -2 -294 -240 -530 -536 -530 -39 0 -93 7 -120 15 -64
19 -88 18 -44 -3 27 -13 65 -17 170 -17 124 0 140 3 197 27 158 67 269 186
318 341 59 184 15 385 -116 534 -22 26 -29 42 -25 59 6 22 4 23 -17 13 -20 -9
-32 -6 -75 21 -83 51 -156 72 -262 76 -58 2 -116 -2 -148 -10z"/>
<path  d="M1690 2445 c-9 -11 -22 -14 -38 -10 -35 9 -70 -18 -78 -60 -5 -31 2
-79 22 -141 5 -15 2 -14 -15 5 -12 13 -24 41 -27 62 -4 22 -11 42 -17 46 -10
6 -6 -21 10 -64 3 -10 3 -15 -2 -11 -4 4 -14 29 -21 55 -10 37 -13 41 -13 20
-1 -39 26 -100 40 -91 7 4 9 3 5 -4 -3 -6 8 -31 25 -56 l32 -45 -162 -157
c-89 -86 -199 -185 -244 -219 -81 -62 -226 -205 -208 -205 10 0 53 41 108 103
18 19 67 61 110 93 43 31 134 112 203 179 122 118 180 165 180 146 0 -6 -33
-52 -74 -103 -75 -93 -97 -138 -30 -59 l37 43 66 -5 c85 -7 132 -17 125 -28
-3 -5 -31 -9 -62 -9 -75 -1 -135 -13 -167 -34 -39 -25 -24 -31 17 -7 32 20 38
20 99 7 35 -8 75 -19 89 -24 31 -13 26 -14 -120 -16 -104 -1 -106 -2 -148 -34
-29 -23 -42 -41 -42 -58 0 -29 33 -45 70 -33 29 8 132 20 113 12 -18 -7 -16
-24 4 -38 14 -10 5 -13 -53 -20 -40 -4 -97 -19 -136 -36 -37 -16 -84 -29 -106
-29 -45 0 -92 -32 -117 -81 -17 -33 -18 -39 -6 -39 5 0 11 10 15 23 10 43 59
77 122 87 33 4 80 18 106 29 26 12 80 28 120 35 118 23 143 31 143 46 0 26
-91 42 -172 30 -104 -16 -118 -2 -55 56 l37 35 108 -5 c64 -3 107 -1 107 5 0
5 9 9 19 9 11 0 23 5 26 10 3 6 15 10 26 10 41 0 17 20 -26 21 -25 1 -49 3
-55 4 -5 1 -21 3 -35 4 -45 2 -26 21 20 21 31 0 55 7 75 22 39 29 38 35 -7 34
-21 0 -73 1 -116 2 l-79 2 36 49 c20 27 36 60 36 75 0 30 7 32 38 10 24 -17
39 -14 27 5 -3 6 -12 8 -18 4 -8 -5 -8 -2 0 9 7 8 10 18 6 21 -3 4 17 7 46 7
87 0 176 -68 102 -78 -35 -5 -66 5 -101 34 -17 15 -33 24 -36 21 -3 -2 14 -19
38 -36 77 -57 152 -37 141 37 -8 54 -20 72 -53 79 -25 5 -28 8 -19 24 11 21 2
117 -14 137 -5 6 -13 27 -16 45 -8 37 -39 48 -61 22z m51 -31 c8 -43 -6 -73
-63 -131 -29 -29 -49 -55 -47 -58 9 -8 119 112 119 130 0 9 4 14 9 11 13 -8
20 -98 10 -118 -12 -22 -74 -55 -113 -59 -30 -4 -30 -4 -34 55 -6 87 4 121 48
167 43 46 62 47 71 3z m-96 7 c3 -5 -5 -26 -16 -46 -13 -21 -23 -55 -23 -80
-1 -63 -20 -25 -20 41 -1 38 4 58 18 73 21 23 32 26 41 12z m175 -231 c11 -11
20 -29 20 -40 0 -20 0 -20 -37 0 -28 15 -54 20 -95 19 -32 -2 -61 1 -65 4 -3
4 5 7 18 7 13 1 38 7 54 15 44 20 82 18 105 -5z"/>
<path  d="M1394 2319 c-3 -6 -2 -15 2 -19 12 -12 38 5 30 19 -9 14 -23 14 -32
0z"/>
<path stroke="green" stroke-width="2" d="M1237 2246 c-12 -27 -25 -38 -47 -42 -35 -7 -39 -20 -10 -29 22 -7
50 -53 50 -82 0 -11 7 -4 18 17 10 21 31 42 51 51 32 15 33 17 14 23 -28 9
-44 30 -52 67 l-6 31 -18 -36z"/>
<path stroke="green" stroke-width="2" d="M1925 1997 c-4 -10 -19 -24 -34 -32 -14 -8 -20 -14 -13 -15 7 0 21
-14 31 -31 18 -29 19 -30 26 -11 3 12 16 24 27 28 20 6 20 8 5 19 -9 6 -21 23
-26 36 -8 21 -10 22 -16 6z"/>
</g>
</svg>
