<svg xmlns="http://www.w3.org/2000/svg" version="1.1" xmlns:xlink="http://www.w3.org/1999/xlink" xmlns:svgjs="http://svgjs.dev/svgjs" width="128" height="88"><svg xmlns="http://www.w3.org/2000/svg" width="128" height="88" class="img-fluid" viewBox="0 0 12780 8880"><defs><linearGradient id="SvgjsLinearGradient1002" x1="27.23%" x2="62.128%" y1="-7.883%" y2="79.167%" gradientUnits="userSpaceOnUse"><stop offset="0%" style="stop-color:#000"></stop><stop offset="11%" style="stop-color:#e47bf8"></stop><stop offset="100%" style="stop-color:#3fc9cf"></stop></linearGradient></defs><path fill="#180d56" d="M6080 8859c-814-61-1619-328-2249-747l-103-69-127 39c-1381 428-2491 561-3081 368-604-197-680-703-212-1405 187-280 384-510 724-846l218-216-32-62c-25-49-32-74-32-125l-1-64-44-22c-65-31-285-165-376-228-288-200-509-418-633-626-97-162-144-354-124-511 38-301 231-559 597-798 334-218 771-391 1370-542l250-63 80-238c218-645 527-1297 842-1779 216-330 488-660 644-780C3916 48 4065-9 4157 5c236 35 482 396 700 1025 52 151 54 155 81 152 15-1 142-13 282-27 548-53 674-59 1235-59 575 0 704 7 1284 65 167 17 307 27 311 22 4-4 19-44 35-88 99-282 243-592 356-765 34-52 101-134 148-181 160-159 275-183 466-94 193 89 377 291 677 741 108 162 174 272 315 522 20 35 29 43 46 39 260-56 483-101 607-121 985-161 1637-85 1924 224 64 70 119 177 136 267 17 87 8 268-19 365-100 366-422 827-936 1341-100 100-236 231-303 292-67 60-122 113-122 116 0 4 73 45 163 92 359 185 649 388 860 599 115 115 130 127 155 122 72-14 179 51 203 123 17 51 7 137-20 173l-22 30 21 68c31 97 39 288 16 383-16 65-16 74-2 110 18 45 21 115 5 156-23 62-109 122-174 123-25 0-45 15-105 76-362 367-1015 652-1973 860-89 19-164 38-167 42-4 4-49 72-102 152-1104.26 1660.902-3040.998 1989.747-4158 1909Zm4045-1981c-309.216 466.318 11.675-17.304 0 0zM1660 8416c506-57 1044-170 1665-351 283-83 296-87 293-96-2-4-64-56-138-115-454-367-846-846-1119-1368-45-85-57-101-94-120-56-28-96-87-104-154-4-36-11-56-22-59-17-6-356-137-402-156-22-9-31-5-72 26-51 39-129 67-184 67-18 0-62-10-97-21l-65-22-115 108c-64 59-171 164-238 234-704 727-989 1307-820 1671 35 76 147 185 238 233 128 66 343 122 544 141 98 9 601-3 730-18zm8594-1706C0 0 0 0 10254 6710Zm291-60c55-11 195-45 310-75 713-183 1262-442 1544-729l65-66-21-22c-76-83-69-209 16-281 43-36 94-50 151-43l49 7 8-48c13-78 8-213-11-289l-17-71-47 4c-59 5-123-25-166-80-44-55-49-138-12-203l26-46-40-48c-170-203-511-446-928-662l-173-90-52 44c-29 23-114 95-190 158l-138 114 7 221c22 747-124 1450-429 2057-45 90-84 167-86 172-2 4 5 6 15 3 11-3 64-15 119-27zm-8378-603c-41-108-132-441-143-530-5-35-10-47-21-43-7 3-64 47-127 97l-112 91 13 51c16 64 16 80 0 144l-14 52 156 61c86 34 172 67 191 75 44 18 63 18 57 2zm-920-441c44-69 145-119 238-119 67 0 119 18 178 60 27 19 52 33 56 31s68-52 142-111l135-108-13-102c-74-616-19-1296 164-2020 25-98 43-180 41-183-6-5-298 67-468 116-491 142-906 330-1180 534-104 78-239 214-300 302-197 284-184 591 36 901 69 97 231 261 354 360 165 133 537 372 580 372 8 1 25-15 37-33zm9856-1652c53-43 96-82 96-85 1-6-276-125-315-135-24-6-26-5-21 17 3 13 13 89 22 169 25 214 17 198 74 152 27-21 92-74 144-118zm255-221c659-589 1097-1131 1255-1554 65-175 82-363 42-484-131-404-787-539-1845-379-225 34-690 127-690 138 0 2 31 68 69 147 282 591 513 1281 626 1870l28 145 61 24c34 13 131 54 216 91 85 38 157 68 159 69 2 0 38-30 79-67z"></path><g fill="url(#a)" style="transform:none"><path d="M6105 8749c-784-59-1543-303-2148-689l-89-57 199-68c655-224 1417-531 2107-849l230-106 145 10c456 31 1365 40 1831 20 585-26 1134-79 1609-155 85-14 156-23 158-21 6 6-42 76-150 219-512 675-1235 1180-2092 1460-370 122-641 177-1140 234-84 9-545 11-660 2z"></path><path d="M6930 6909c-113-5-234-11-270-15l-65-6 220-107c738-360 1668-880 2380-1331 552-350 985-653 1570-1098l43-32 7 135c6 116 4 200-10 430-6 88-38 328-61 455-68 375-172 701-330 1029-57 117-157 308-179 339-6 7-437 74-655 101-420 52-783 82-1235 101-275 11-1111 11-1415-1z"></path></g><g fill="#38CDCD" style="transform:none"><path fill="url(#a)" d="M5811 8719c-667-88-1329-324-1854-659l-89-57 199-68c655-224 1417-531 2107-849l230-106 145 10c314 21 646 30 1116 30 617 0 971-15 1479-61 120-11 220-18 221-17 2 2-273 149-610 328-581 308-613 326-587 337 19 8 23 13 12 16-8 3-66 22-127 42-62 20-121 44-131 53-11 9-34 67-52 127-18 61-36 116-40 124-5 9-17-16-35-70-15-46-30-88-32-92-4-7-129 55-301 151l-63 34 26 28c91 95-28 250-143 186-30-16-62-65-62-93 0-13-2-23-5-23-2 0-280 146-617 325-336 179-619 325-627 324-9 0-81-9-160-20z"></path><path d="M8490 7983c-39-12-63-30-76-55-31-60-7-140 51-164 44-18 59-18 101 2 91 43 83 170-12 210-35 15-40 15-64 7z"></path><path fill="url(#a)" d="M6930 6909c-113-5-234-11-270-15l-65-6 220-107c738-360 1668-880 2380-1331 552-350 985-653 1570-1098l43-32 7 135c6 116 4 200-10 430-6 88-38 328-61 455-62 342-167 683-299 965l-41 90-367 195c-230 122-330.934 178.747-347.857 188.486-16.519 12.371-.686.277-14.229 13.494-14 0-81.914 14.02-144.914 23.02-287 39-765 77-1185 95-275 11-1111 11-1415-1z"></path></g><g fill="#47C6D1" style="transform:none"><path fill="url(#a)" d="M4755 8456c-298-114-558-243-798-396l-89-57 199-68c655-224 1417-531 2107-849l230-106 145 10c294 20 637 30 1071 32 323 2 391 4 250 8l-195 5-1388 738c-764 405-1389 737-1390 737-1-1-65-25-142-54z"></path><path d="m7780 7844-45-138-138-40-138-41 38-12c21-6 83-26 138-43l101-31 38-135c22-74 42-132 45-128 3 3 24 62 46 132l41 127 132 39c73 22 129 43 125 47-5 4-63 24-131 45l-122 37-31 101c-16 56-36 118-42 139l-12 38-45-137zm493-831c20-2 54-2 75 0 20 2 3 4-38 4s-58-2-37-4zm240-10c15-2 39-2 55 0 15 2 2 4-28 4s-43-2-27-4zm335-20c12-2 30-2 40 0 9 3-1 5-23 4-22 0-30-2-17-4z"></path><path fill="url(#a)" d="M6930 6909c-113-5-234-11-270-15l-65-6 220-107c738-360 1668-880 2380-1331 552-350 985-653 1570-1098l43-32 7 135c6 116 4 200-10 430-8 122-66 521-77 530-2 1-640 340-1419 754l-1416 751-379-2c-208 0-471-5-584-9z"></path><path d="M8368 6903c17-2 47-2 65 0 17 2 3 4-33 4s-50-2-32-4z"></path><path fill="url(#a)" d="M6240 6869c-585-47-1241-128-1770-220-612-105-1352-279-1806-424l-111-35-7-40c-14-89-118-158-219-147l-53 7-36-113c-179-549-220-1227-117-1957 99-702 343-1465 709-2216 230-473 433-801 713-1153 298-374 511-511 669-430 103 53 231 223 349 464 82 169 113 246 194 480 49 139 68 184 88 199 26 19 29 19 364-13 480-45 539-49 914-62 521-18 975 1 1667 71 337 34 338 34 366-42 204-565 348-848 516-1015 77-77 128-103 201-103 146 1 345 154 545 420 426 566 770 1231 1028 1990 186 545 314 1122 351 1585l7 80-82 63c-899 696-1915 1350-3054 1967-474 256-1275 657-1307 654-8-1-61-6-119-10zm271-2038c23-19 24-25 27-187l3-169 73-90c97-119 101-128 87-176-19-62-42-69-240-69h-169l-26 31c-45 53-37 83 54 200l80 102v336l26 20c33 26 55 26 85 2zm1684-36c76-16 189-66 260-115 212-146 341-435 306-684-29-206-127-381-279-496-307-232-733-197-988 83-76 83-119 155-157 264-30 83-32 96-32 233s2 150 32 233c86 244 268 412 514 477 91 23 245 26 344 5zm-3082-11c93-20 236-90 311-151 173-142 278-384 263-608-21-316-235-580-542-666-111-31-269-31-379 0-458 128-679 633-460 1051 104 199 289 334 529 384 51 10 213 5 278-10z"></path><path d="M8888 6873c12-2 30-2 40 0 9 3-1 5-23 4-22 0-30-2-17-4zm1054-680c-108-53-68-217 53-217s160 166 51 218c-42 20-62 20-104-1z"></path></g><g fill="#5ABDD5" style="transform:none"><path d="M6322 8753c59-2 158-2 220 0 62 1 14 3-107 3s-172-2-113-3zm-244-10c12-2 30-2 40 0 9 3-1 5-23 4-22 0-30-2-17-4z"></path><path fill="url(#a)" d="m3967 8066-99-63 199-68c221-75 618-220 792-289 63-25 116-44 117-43 2 1-208 114-466 251-409 218-467 251-452 262 41 32-1 9-91-50zm-300-207c-166-126-311-256-488-437-289-296-512-598-690-936l-50-96 49-48 50-49 59 19c252 80 810 228 1083 286 52 12 147 32 210 46 565 122 1516 259 2127 307 90 7 159 16 155 20-10 10-371 172-654 293-531 227-1044 424-1556 596l-203 69-92-70z"></path><path d="M6973 7013c20-2 54-2 75 0 20 2 3 4-38 4s-58-2-37-4zm1725-20c12-2 30-2 40 0 9 3-1 5-23 4-22 0-30-2-17-4zm145-10c9-2 25-2 35 0 9 3 1 5-18 5s-27-2-17-5zm-1665-70c28-2 76-2 105 0 28 2 5 3-53 3s-81-1-52-3zm-290-10c17-2 47-2 65 0 17 2 3 4-33 4s-50-2-32-4zm-205-10c15-2 37-2 50 0 12 2 0 4-28 4-27 0-38-2-22-4zm2065-10c12-2 30-2 40 0 9 3-1 5-23 4-22 0-30-2-17-4z"></path><path fill="url(#a)" d="M6240 6869c-585-47-1241-128-1770-220-612-105-1352-279-1806-424l-111-35-7-40c-14-89-118-158-219-147l-53 7-36-113c-179-549-220-1227-117-1957 99-702 343-1465 709-2216 230-473 433-801 713-1153 298-374 511-511 669-430 103 53 231 223 349 464 82 169 113 246 194 480 49 139 68 184 88 199 26 19 29 19 364-13 480-45 539-49 914-62 521-18 975 1 1667 71 337 34 338 34 366-42 204-565 348-848 516-1015 77-77 128-103 201-103 146 1 345 154 545 420 426 566 770 1231 1028 1990 186 545 314 1122 351 1585l7 80-82 63c-580 449-1177 860-1863 1281-108 66-202 122-209 124-6 1-20 10-30 20s-23 15-28 12c-6-4-10-2-10 4s-10 15-21 22c-16 8-20 8-14-1 4-6-16 0-44 15-29 14-49 30-46 35s0 12-6 16c-8 4-9 3-5-4s4-12 0-12c-17 0-2071 1096-2067 1103 2 4-4 6-14 6-10-1-65-6-123-10zm271-2038c23-19 24-25 27-187l3-169 73-90c97-119 101-128 87-176-19-62-42-69-240-69h-169l-26 31c-45 53-37 83 54 200l80 102v336l26 20c33 26 55 26 85 2zm1684-36c76-16 189-66 260-115 212-146 341-435 306-684-29-206-127-381-279-496-307-232-733-197-988 83-76 83-119 155-157 264-30 83-32 96-32 233s2 150 32 233c86 244 268 412 514 477 91 23 245 26 344 5zm-3082-11c93-20 236-90 311-151 173-142 278-384 263-608-21-316-235-580-542-666-111-31-269-31-379 0-458 128-679 633-460 1051 104 199 289 334 529 384 51 10 213 5 278-10z"></path><path d="M8893 6873c9-2 25-2 35 0 9 3 1 5-18 5s-27-2-17-5zm-2213-28c25-13 50-24 55-24 6 0-10 11-35 24s-49 24-55 24c-5 0 10-11 35-24zm2333 18c9-2 25-2 35 0 9 3 1 5-18 5s-27-2-17-5zm-2563-28c14-8 30-14 35-14 6 0-1 6-15 14s-29 14-35 14c-5 0 1-6 15-14zm291-139c10-9 309-156 309-151s-296 155-307 155c-3 0-4-2-2-4zm409-81c0-2 23-16 50-30 28-14 50-23 50-20 0 2-22 16-50 30-27 14-50 23-50 20zm270-139c0-3 14-12 30-21 17-9 30-13 30-11 0 3-13 12-30 21-16 9-30 13-30 11zm-120-60c0-3 14-12 30-21 17-9 30-13 30-11 0 3-13 12-30 21-16 9-30 13-30 11zm290-30c0-3 14-12 30-21 17-9 30-13 30-11 0 3-13 12-30 21-16 9-30 13-30 11zm30-140c0-3 14-12 30-21 17-9 30-13 30-11 0 3-13 12-30 21-16 9-30 13-30 11z"></path><path fill="url(#a)" d="M9890 4995c0-2 60-45 133-96 200-140 465-334 632-463l150-116 6 73c4 39 6 131 6 202l-1 130-5-107-6-106-457 243c-252 133-458 242-458 240z"></path></g><g fill="#68B6D9" style="transform:none"><path fill="url(#a)" d="M3199 7442c-308-314-527-609-710-956l-50-96 49-48 50-49 59 19c251 80 806 226 1083 287 357 77 604 124 970 185 80 13 135 25 124 25-12 1-208 100-435 221-228 121-420 218-426 215-7-2-13 0-13 6s-7 36-17 67l-16 57-12-35c-6-19-17-35-23-35s-121 58-256 130l-245 130 36 37c21 21 35 38 31 38-3 0-92-89-199-198z"></path><path d="M8133 6913C0 0 0 0 8133 6913Z"></path><path fill="url(#a)" d="M4860 6713c-14-2-135-22-270-44-649-106-1433-287-1926-444l-111-35-7-40c-14-89-118-158-219-147l-53 7-36-113c-179-549-220-1227-117-1957 99-702 343-1465 709-2216 230-473 433-801 713-1153 298-374 511-511 669-430 103 53 231 223 349 464 82 169 113 246 194 480 49 139 68 184 88 199 26 19 29 19 364-13 480-45 539-49 914-62 521-18 975 1 1667 71 337 34 338 34 366-42 121-335 194-511 278-668 113-213 249-385 343-430 125-61 289 11 480 212 216 226 532 705 755 1143 314 618 555 1308 691 1974 16 79 29 149 29 156 0 11-448 255-468 255-6 0-16 23-23 50-7 28-16 50-20 50s-10-17-14-37c-3-20-10-32-13-27-12 18-5269 2804-5288 2803-11-1-30-4-44-6zm1651-1882c23-19 24-25 27-187l3-169 73-90c97-119 101-128 87-176-19-62-42-69-240-69h-169l-26 31c-45 53-37 83 54 200l80 102v336l26 20c33 26 55 26 85 2zm1684-36c76-16 189-66 260-115 212-146 341-435 306-684-29-206-127-381-279-496-307-232-733-197-988 83-76 83-119 155-157 264-30 83-32 96-32 233s2 150 32 233c86 244 268 412 514 477 91 23 245 26 344 5zm-3082-11c93-20 236-90 311-151 173-142 278-384 263-608-21-316-235-580-542-666-111-31-269-31-379 0-458 128-679 633-460 1051 104 199 289 334 529 384 51 10 213 5 278-10z"></path><path d="M10792 4140c0-19 2-27 5-17 2 9 2 25 0 35-3 9-5 1-5-18z"></path></g><g fill="#7BADDE" style="transform:none"><path d="m3810 7195-53-175-86-26c-47-15-129-39-181-54-90-26-94-28-67-39 16-6 31-11 34-11s70-20 149-45l143-46 25-82c19-62 22-83 13-90-7-5-2-7 13-3 14 3 51 11 82 17 32 6 55 16 52 21-3 4 4 37 15 71l21 63 168 49c92 26 170 51 174 55 5 3-70 30-165 59l-174 53-48 167c-27 91-51 172-55 179-3 7-30-67-60-163zm3218-182c12-2 30-2 40 0 9 3-1 5-23 4-22 0-30-2-17-4z"></path><path fill="url(#a)" d="M2687 6818c-96-146-160-254-216-366l-32-63 50-48 49-48 59 19c149 47 517 150 696 194 108 27 197 51 197 54s-160 91-355 194c-195 104-352 193-349 197 3 5 3 9 0 9-2 0-47-64-99-142zM3489 6449c-181-41-649-168-825-224l-111-35-7-40c-14-89-118-158-219-147l-53 7-36-113c-179-549-220-1227-117-1957 99-702 343-1465 709-2216 230-473 433-801 713-1153 298-374 511-511 669-430 103 53 231 223 349 464 82 169 113 246 194 480 49 139 68 184 88 199 26 19 29 19 364-13 480-45 539-49 914-62 521-18 975 1 1667 71 337 34 338 34 366-42 204-565 348-848 516-1015 77-77 128-103 201-103 146 1 345 154 545 420 349 464 638 986 881 1590 71 177 249 688 242 694-2 2-105 56-228 121-130 68-218 121-211 125 6 4-16 15-52 25-35 9-68 21-74 26s-14 6-17 2c-4-3-7-1-7 6 0 8-6 11-16 7-8-3-13-2-9 3 3 5-42 33-99 62l-104 53-42 146c-23 80-45 149-48 154-2 5-21-43-41-107-26-82-40-112-47-102s-817 445-829 445c-2 0-18-26-35-57-137-243-372-383-645-385-211-1-401 82-541 235-76 83-119 155-157 264-29 82-31 97-32 228 0 128 3 148 29 228 16 48 43 112 61 141 18 30 27 52 20 50-11-5-3743 1969-3755 1986-3 4-79-10-171-31zm3022-1618c23-19 24-25 27-187l3-169 73-90c97-119 101-128 87-176-19-62-42-69-240-69h-169l-26 31c-45 53-37 83 54 200l80 102v336l26 20c33 26 55 26 85 2zm-1398-47c93-20 236-90 311-151 173-142 278-384 263-608-21-316-235-580-542-666-111-31-269-31-379 0-458 128-679 633-460 1051 104 199 289 334 529 384 51 10 213 5 278-10z"></path><path d="M7998 4813c17-2 47-2 65 0 17 2 3 4-33 4s-50-2-32-4zm2816-228c0-77 2-107 3-67 2 40 2 103 0 140s-3 4-3-73zm-3309 13-40-43 43 40c39 36 47 45 39 45-2 0-21-19-42-42z"></path></g><g fill="#96A0E5" style="transform:none"><path d="M3859 6440C0 0 0 0 3859 6440Z"></path><path fill="url(#a)" d="M2238 5898c-179-550-220-1228-117-1958 99-702 343-1465 709-2216 230-473 433-801 713-1153 298-374 511-511 669-430 103 53 231 223 349 464 82 169 113 246 194 480 49 139 68 184 88 199 26 19 29 19 364-13 480-45 539-49 914-62 521-18 975 1 1667 71 337 34 338 34 366-42 204-565 348-848 516-1015 77-77 128-103 201-103 146 1 345 154 545 420 112 149 313 451 410 615 129 221 372 708 344 690-8-5-4330 2281-4452 2355l-47 29 7-32c4-18 7-81 7-142-1-85-6-127-24-185-79-257-264-440-516-511-111-31-269-31-379 0-172 48-326 158-421 301-240 361-117 856 262 1053 35 17 63 34 63 37 0 8-2349 1253-2373 1257-20 4-26-6-59-109z"></path><path d="M4933 4803c9-2 25-2 35 0 9 3 1 5-18 5s-27-2-17-5zm2662-298c-50-49-15-135 55-135 41 0 80 39 80 80s-39 80-80 80c-19 0-40-9-55-25zm-3077-15c-25-26-29-36-24-63 8-41 39-67 80-67 69 0 101 86 51 135-33 34-70 32-107-5zm3999-348c-39-43-8-112 49-112 25 0 64 43 64 69 0 50-80 80-113 43zm-3077-12c-25-25-26-72-2-93 41-37 112-6 112 48 0 14-9 34-20 45s-31 20-45 20-34-9-45-20zm932 3c37-2 100-2 140 0 40 1 10 3-67 3s-110-1-73-3zm2012-192c-162-74-112-311 66-311 96 0 160 64 160 161 0 70-27 115-90 147-53 27-82 27-136 3zm-3049-1c-103-23-156-137-109-237 48-99 204-115 273-27 96 122-14 298-164 264zm2835-320c-40-40-11-110 45-110 32 0 65 33 65 65s-33 65-65 65c-14 0-34-9-45-20zm-3078-13c-27-29-28-61-2-87 43-43 110-14 110 48 0 57-68 82-108 39zm2388-20c0-2 15-16 33-33l32-29-29 33c-28 30-36 37-36 29z"></path></g><g fill="#AC96EA" style="transform:none"><path d="m3810 7195-53-175-86-26c-47-15-129-39-181-54-90-26-94-28-67-39 16-6 31-11 34-11s70-20 149-45l143-46 221-3 168 49c92 26 170 51 174 55 5 3-70 30-165 59l-174 53-48 167c-27 91-51 172-55 179-3 7-30-67-60-163zm45-757C0 0 0 0 3855 6438Z"></path><path fill="url(#a)" d="M2067 4781c-7-67 8-448 23-596 83-796 332-1624 740-2461 230-473 433-801 713-1153 298-374 511-511 669-430 103 53 231 223 349 464 82 169 113 246 194 480 49 139 68 184 88 199 26 19 29 19 364-13 480-45 539-49 914-62 521-18 975 1 1667 71 337 34 338 34 366-42 121-335 194-511 278-668 113-213 249-385 343-430 150-73 371 56 606 355 70 88 243 335 238 339-2 2-97 52-212 112-135 71-206 114-205 123 2 9 42 25 107 42 57 15 105 30 108 32 2 3-44 21-104 41l-108 36-34 110c-19 61-37 107-41 103s-17-46-30-93-26-92-31-100c-4-8-35-22-69-31-59-17-62-17-93 1-18 10-923 492-2012 1070-1740 924-1987 1053-2040 1061-164 24-295 89-414 206-46 46-85 83-87 83-1 0-501 265-1111 588-609 324-1122 596-1139 605l-31 16-6-58z"></path><path d="M7597 4508c-26-23-31-81-8-106 57-67 165-4 132 77-21 50-82 65-124 29zm-3079-21c-29-30-31-38-22-73 7-25 53-54 86-54 30 0 68 38 68 69 0 24-26 80-38 82-47 9-69 3-94-24zm3998-348c-23-34-21-76 6-90 40-21 67-19 88 8 36 46 17 90-43 100-28 4-37 1-51-18zm-3070-13c-42-41-29-95 26-103 21-3 58 13 70 31 23 33-1 81-44 91-21 5-33 1-52-19zm2936-188c-179-87-86-345 110-303 71 16 113 68 117 148s-30 130-112 165c-39 17-65 14-115-10zm-3043 3c-33-8-93-49-109-75-30-47-23-146 13-187 34-40 68-56 120-58 84-4 139 36 166 122 25 76-28 167-111 192-28 8-52 14-52 14-1-1-13-4-27-8zm2835-327c-20-19-24-31-19-52 7-32 31-52 60-52s53 20 60 52c5 21 1 33-19 52-14 15-32 26-41 26s-27-11-41-26zm-3080-5c-38-42-22-95 32-105 44-8 74 16 74 60 0 24-7 36-29 49-38 22-54 21-77-4z"></path></g><path fill="url(#a)" d="M2164 3688c3-13 15-72 26-133 168-872 660-2028 1163-2733 201-281 408-518 535-609 126-91 239-116 324-72 103 53 231 223 349 464 82 169 113 246 194 480 49 139 68 184 88 199 26 19 29 19 364-13 496-47 533-49 948-62 248-8 438-9 548-3l169 9-1835 974c-1010 536-1838 973-1842 972-4-2-19 8-33 22-37 35-92 57-149 58-42 1-44 2-15 8 29 5-4 25-397 234-236 125-432 227-435 227-4 0-4-10-2-22zm1063-675c-2-16-4-5-4 22 0 28 2 40 4 28 2-13 2-35 0-50zM8639 262c16-30 113-110 154-127 38-16 117-21 117-7 0 4-64 40-141 80-102 53-137 68-130 54z" style="transform:none"></path><path fill="url(#a)" d="M2550 2376c0-3 22-61 49-128 225-564 521-1112 814-1508 375-507 620-690 800-599 162 83 352 412 528 911l48 137-52 29c-29 16-410 219-849 451l-796 423 20 34c47 80-6 174-98 174-39 0-51-5-80-34-26-26-34-43-35-73-1-22-4-29-6-16-3 16-33 37-111 79-59 31-135 72-169 91-35 19-63 32-63 29zm408-290c15-9 21-15 14-16-17 0-72 55-72 72 1 7 7 1 16-14 8-15 27-34 42-42z" style="transform:none"></path><path fill="#FFF" d="M7291 8208c-110-59-72-218 51-218 106 0 152 126 74 199-29 27-92 37-125 19zm1194-226c-76-26-108-106-68-172 36-62 124-74 175-23 34 35 46 95 26 132-25 47-89 77-133 63zm-705-138-45-138-138-40-138-41 38-12c21-6 83-26 138-43l100-31 40-134c21-74 41-132 44-129s24 62 46 132l41 127 132 39c73 22 129 43 125 47-5 4-63 24-131 45l-122 37-31 101c-16 56-36 118-42 139l-12 38zm-3970-649-53-175-86-26c-47-15-129-39-181-54-90-26-94-28-67-39 16-6 31-11 34-11s70-20 149-45l143-46 26-84c14-47 31.559-90.785 38.248-88.723 7.248 2.234-2.735-1.198 17.315 4.064l89.466 18.957L3947 6726l23 70 168 49c92 26 170 51 174 55 5 3-70 30-165 59l-174 53-48 167c-27 91-51 172-55 179-3 7-30-67-60-163zm-525-649c-29-12-62-43-54-50 2-1 42 7 89 19 81 21 84 23 57 34-36 14-54 13-92-3zm551.255-20.146c-2-5 2.745-28.854 8.745-50.854l12-39 11 33c7 19 18.75 67.437 11.876 66.112-14.893-2.87-14.406-3.456-43.62-9.258zM3343 6411c-109-27-122-38-76-68 32-21 91-23 126-4 26 14 63 71 56 87-2 6-46 0-106-15zm1071-125c-26-26-34-42-34-70 0-96 88-153 170-111 42 21 60 53 60 103 0 37-6 50-34 78-29 29-41 34-81 34s-52-5-81-34zm5528-93c-64-31-82-117-37-172 69-81 188-47 202 57 7 50-18 95-63 117-40 19-61 19-102-2zM7620 4517c-38-19-54-60-38-94 20-42 58-59 96-44 61 25 65 113 6 140-31 14-33 14-64-2zm-3104-29c-25-35-20-83 10-107 35-28 69-26 99 4 27 26 31 54 14 88-16 30-28 37-71 37-27 0-41-6-52-22zm5422-14c-54-29-74-109-41-164 20-35 52-50 104-50 56 0 109 51 109 104 0 95-92 154-172 110zm-1418-334c-50-50 4-128 68-98 38 18 44 79 10 102-30 21-54 20-78-4zm-3075-15c-40-40-27-87 27-100 21-5 33-1 52 19 32 31 33 50 1 81-13 14-31 25-40 25s-27-11-40-25zm4736-254-33-108-116-33-116-34 114-36 114-35 33-109c18-60 35-111 37-113 1-2 18 46 36 107l34 110 80 24c45 14 93 28 109 31 15 4 27 10 27 14 0 3-48 22-107 41l-107 35-30 108c-17 59-33 107-36 107s-20-49-39-109zm-1809 62c-49-24-75-68-80-132-3-46 0-62 20-90 39-58 72-76 138-76 92 0 150 54 157 147 7 97-60 168-157 168-25 0-60-8-78-17zm-3082-15c-57-39-75-72-75-138 0-92 54-150 147-157 65-5 121 24 150 77 26 47 21 134-10 177-45 63-149 83-212 41zm-2788-85c-58-28-80-105-45-163 43-73 161-72 199 2 31 60 7 140-51 164-44 18-62 17-103-3zm5673-218c-14-13-25-31-25-40 0-21 44-65 65-65s65 44 65 65-44 65-65 65c-9 0-27-11-40-25zm-3075-3c-43-35-15-112 41-112 27 0 59 35 59 64 0 25-41 66-65 66-7 0-23-8-35-18zm4520-61c0-7-25-91-55-185l-55-172-185-54c-102-30-180-57-173-61s87-30 178-58c91-29 168-55 172-59s31-87 60-185c29-97 55-177 58-177s29 79 59 175 59 179 65 184c6 4 85 29 176 56 91 26 171 50 178 54s-66 31-162 61c-96 29-180 56-186 60-5 3-33 85-61 181-47 158-69 217-69 180zm-6702-331c-80-43-129-146-109-232 42-178 275-224 378-75 22 31 28 54 31 107 4 73-14 124-60 167-57 54-170 69-240 33zm2403-813c-81-41-85-169-5-205 35-17 96-15 122 4 26 18 52 65 52 94 0 36-31 90-61 105-34 18-76 19-108 2zm-2387-141c-39-39-45-86-19-136 41-79 160-77 201 2 40 78-14 168-102 168-39 0-51-5-80-34zm5567-430c-33-18-50-53-51-104 0-37 6-50 34-78 26-26 42-34 70-34 96 0 154 88 112 169-30 56-108 79-165 47zm-4075-107c-40-11-64-36-77-80-10-31-9-43 7-75 36-73 115-92 178-43 97 76 12 233-108 198zm4701-299c-3-8-18-55-32-104-14-50-28-93-32-97-5-3-55-19-112-34l-103-28 48-19c27-10 77-27 111-39l63-21 31-101c17-56 35-105 38-110 4-4 21 41 37 100l30 106 103 28c57 15 105 30 108 32 2 3-44 21-104 41l-108 36-36 113c-21 64-39 106-42 97zm-5072-125c-21-69-43-129-49-134s-67-25-136-46c-69-20-127-38-128-40-2-2 57-23 131-46l135-42 38-133c22-74 42-134 45-134s23 56 44 125 43 130 49 134c6 5 67 26 136 46s127 39 129 40c1 2-58 23-132 46l-135 42-37 126c-20 69-40 130-44 134s-25-49-46-118z" style="transform:none"></path></svg><style>@media (prefers-color-scheme: light) { :root { filter: none; } }
@media (prefers-color-scheme: dark) { :root { filter: none; } }
</style></svg>